<svg width="211" height="126" viewBox="0 0 211 126" fill="none" xmlns="http://www.w3.org/2000/svg">
<g clip-path="url(#clip0)">
<path d="M161.547 124.575C158.845 122.295 157.204 118.694 157.635 115.187C158.065 111.681 160.73 108.458 164.187 107.713C167.645 106.969 171.585 109.03 172.636 112.403C173.213 105.9 173.879 99.1237 177.341 93.5855C180.475 88.5708 185.904 84.9826 191.788 84.3407C197.672 83.6988 203.867 86.1232 207.536 90.7617C211.206 95.4002 212.104 102.144 209.534 107.469C207.641 111.392 204.153 114.312 200.498 116.687C188.689 124.297 174.526 127.392 160.614 125.402L161.547 124.575Z" fill="#57B793"/>
<path d="M201.718 86.2577C196.863 90.2073 192.409 94.6247 188.421 99.4459C182.179 106.965 177.128 115.396 173.444 124.444C173.175 125.104 174.248 125.391 174.514 124.739C180.542 110.034 190.165 97.0727 202.503 87.0414C203.057 86.5908 202.267 85.8108 201.718 86.2577Z" fill="white"/>
<path d="M67.9243 123.956C71.6346 120.824 73.8883 115.877 73.2973 111.062C72.7063 106.246 69.0456 101.819 64.2972 100.796C59.5487 99.7732 54.1358 102.604 52.6936 107.237C51.8998 98.3048 50.9852 88.9982 46.2306 81.3915C41.9254 74.5038 34.4687 69.5753 26.3874 68.6936C18.3061 67.8119 9.79749 71.142 4.75746 77.513C-0.282569 83.884 -1.5166 93.146 2.01331 100.46C4.61366 105.849 9.40444 109.859 14.424 113.121C30.438 123.529 50.3035 127.87 69.2057 125.091" fill="#57B793"/>
<path d="M12.7489 71.3266C19.417 76.7514 25.5343 82.8187 31.0123 89.4407C36.4911 96.0558 41.3146 103.186 45.4151 110.732C47.7071 114.964 49.766 119.319 51.5827 123.775C51.9531 124.682 50.4792 125.077 50.1129 124.18C46.8951 116.323 42.914 108.799 38.2268 101.718C33.5624 94.6617 28.2237 88.0743 22.2857 82.048C18.9272 78.6411 15.3836 75.4213 11.6711 72.4031C10.9102 71.7842 11.9942 70.7128 12.7489 71.3266L12.7489 71.3266Z" fill="white"/>
<path d="M151.459 125.724H62.9362V35.0041C62.9362 15.7028 78.6574 0 97.9815 0H116.414C135.738 0 151.459 15.7028 151.459 35.0041V125.724Z" fill="#F2F2F2"/>
<path d="M133.027 125.724H62.9362V35.0041C62.9168 27.6083 65.2615 20.3994 69.6289 14.427C69.7899 14.2078 69.9505 13.9914 70.1161 13.7775C72.2286 11.0101 74.7425 8.57291 77.5749 6.54636C77.7348 6.43009 77.8955 6.31583 78.0585 6.20157C80.4285 4.56338 82.9923 3.22419 85.6914 2.21449C85.8517 2.15381 86.0149 2.09301 86.1781 2.0347C88.6191 1.16458 91.1496 0.56855 93.7227 0.25762C93.8823 0.235854 94.046 0.218823 94.2098 0.20179C96.7173 -0.0660021 99.2463 -0.0660021 101.754 0.20179C101.917 0.218823 102.081 0.235852 102.242 0.257853C104.815 0.568804 107.345 1.16476 109.785 2.03471C109.948 2.09302 110.111 2.15382 110.272 2.21462C112.938 3.21158 115.472 4.53079 117.816 6.14279C117.979 6.25457 118.142 6.36883 118.303 6.48309C119.891 7.61503 121.382 8.87607 122.762 10.2534C123.868 11.3581 124.899 12.5357 125.848 13.7782C126.013 13.9914 126.173 14.2078 126.334 14.4266C130.701 20.3991 133.046 27.6081 133.027 35.0041V125.724Z" fill="#008D8E"/>
<path d="M127.328 85.1485C129.471 85.1485 131.208 83.4132 131.208 81.2726C131.208 79.132 129.471 77.3967 127.328 77.3967C125.184 77.3967 123.447 79.132 123.447 81.2726C123.447 83.4132 125.184 85.1485 127.328 85.1485Z" fill="#008D8E"/>
<path d="M144.207 123.007H141.234L139.819 111.552L144.208 111.552L144.207 123.007Z" fill="#FFB8B8"/>
<path d="M139.11 122.158H144.844V125.765H135.5C135.5 125.291 135.593 124.822 135.774 124.385C135.956 123.947 136.222 123.549 136.557 123.215C136.892 122.88 137.29 122.614 137.728 122.433C138.166 122.252 138.636 122.158 139.11 122.158V122.158Z" fill="#2F2E41"/>
<path d="M159.002 123.007H156.028L154.614 111.552L159.002 111.552L159.002 123.007Z" fill="#FFB8B8"/>
<path d="M153.904 122.158H159.639V125.765H150.294C150.294 125.291 150.387 124.822 150.569 124.385C150.75 123.947 151.016 123.549 151.351 123.215C151.687 122.88 152.085 122.614 152.523 122.433C152.961 122.252 153.43 122.158 153.904 122.158V122.158Z" fill="#2F2E41"/>
<path d="M129.291 82.0404C129.078 81.7256 128.935 81.3678 128.875 80.9922C128.814 80.6166 128.837 80.2323 128.941 79.8664C129.046 79.5005 129.229 79.1619 129.479 78.8744C129.728 78.5869 130.038 78.3576 130.385 78.2025L140.493 50.3769L145.467 53.0879L133.926 79.6791C134.148 80.28 134.142 80.9414 133.908 81.5379C133.674 82.1345 133.23 82.6247 132.659 82.9158C132.087 83.2068 131.429 83.2785 130.809 83.1172C130.188 82.9558 129.648 82.5727 129.291 82.0404V82.0404Z" fill="#FFB8B8"/>
<path d="M157.483 87.269C157.152 87.0797 156.867 86.8204 156.648 86.5093C156.429 86.1982 156.281 85.8429 156.214 85.4684C156.147 85.0939 156.163 84.7092 156.261 84.3416C156.359 83.974 156.537 83.6323 156.781 83.3406L153.65 53.9058L159.31 54.1641L160.611 83.1171C161.075 83.5599 161.359 84.1571 161.411 84.7955C161.463 85.4339 161.279 86.0692 160.893 86.581C160.508 87.0928 159.948 87.4455 159.319 87.5723C158.69 87.6991 158.037 87.5911 157.483 87.269V87.269Z" fill="#FFB8B8"/>
<path d="M148.453 45.2228C151.743 45.2228 154.41 42.559 154.41 39.2731C154.41 35.9871 151.743 33.3233 148.453 33.3233C145.163 33.3233 142.496 35.9871 142.496 39.2731C142.496 42.559 145.163 45.2228 148.453 45.2228Z" fill="#FFB8B8"/>
<path d="M157.445 80.5746H139.486L139.508 80.435C139.54 80.2264 142.708 59.4958 140.372 52.7137C140.137 52.0472 140.158 51.3176 140.43 50.6654C140.701 50.0132 141.205 49.4845 141.844 49.1809H141.844C145.184 47.6099 151.595 45.6754 157.007 50.3701C157.803 51.0724 158.425 51.95 158.823 52.9336C159.221 53.9173 159.385 54.98 159.301 56.0377L157.445 80.5746Z" fill="#008D8E"/>
<path d="M142.935 62.5594L134.85 60.9211L138.64 51.9509C138.867 51.0821 139.429 50.3386 140.204 49.8835C140.979 49.4284 141.903 49.2988 142.774 49.5232C143.644 49.7477 144.39 50.3078 144.847 51.0806C145.305 51.8535 145.437 52.7761 145.214 53.646L142.935 62.5594Z" fill="#008D8E"/>
<path d="M153.29 65.6014L152.804 54.4724C152.436 52.3803 153.635 50.4027 155.479 50.0794C157.323 49.7573 159.124 51.2083 159.495 53.3157L161.322 63.7147L153.29 65.6014Z" fill="#008D8E"/>
<path d="M156.847 79.2422C159.737 90.2344 160.052 104.21 159.273 119.455L155.392 118.97L148.359 89.9009L144.478 119.455L140.113 119.212C138.809 103.217 137.539 89.4854 139.628 80.4535L156.847 79.2422Z" fill="#2F2E41"/>
<path d="M152.378 43.8712C151.267 45.0535 149.203 44.4188 149.058 42.8036C149.047 42.6782 149.048 42.552 149.061 42.4267C149.136 41.7113 149.549 41.0617 149.45 40.3062C149.428 40.1182 149.358 39.9391 149.246 39.7857C148.361 38.6013 146.282 40.3154 145.446 39.2432C144.934 38.5858 145.536 37.5506 145.143 36.8158C144.624 35.846 143.087 36.3244 142.123 35.7933C141.05 35.2023 141.114 33.5585 141.82 32.5587C142.681 31.3393 144.191 30.6887 145.682 30.5949C147.173 30.5011 148.654 30.9037 150.046 31.4455C151.627 32.0612 153.196 32.912 154.169 34.301C155.353 35.9902 155.467 38.2612 154.875 40.2364C154.514 41.4379 153.286 42.9057 152.378 43.8712Z" fill="#2F2E41"/>
<path d="M203.72 125.88H24.6622C24.5858 125.88 24.5125 125.849 24.4586 125.795C24.4046 125.741 24.3743 125.668 24.3743 125.592C24.3743 125.515 24.4046 125.442 24.4586 125.388C24.5125 125.334 24.5858 125.303 24.6622 125.303H203.72C203.796 125.303 203.869 125.334 203.923 125.388C203.977 125.442 204.008 125.515 204.008 125.592C204.008 125.668 203.977 125.741 203.923 125.795C203.869 125.849 203.796 125.88 203.72 125.88V125.88Z" fill="#008E8E"/>
<path d="M113.746 99.4408H82.2172C81.802 99.4431 81.4028 99.2807 81.1073 98.9893C80.8117 98.698 80.644 98.3015 80.6407 97.8868V27.5952C80.644 27.1805 80.8117 26.7839 81.1073 26.4926C81.4028 26.2013 81.802 26.0389 82.2172 26.0411H113.746C114.161 26.0389 114.56 26.2013 114.856 26.4926C115.151 26.7839 115.319 27.1805 115.322 27.5952V97.8868C115.319 98.3015 115.151 98.698 114.856 98.9893C114.56 99.2807 114.161 99.4431 113.746 99.4408V99.4408Z" fill="white"/>
<path d="M115.322 48.7853H80.6407V49.2697H115.322V48.7853Z" fill="#CCCCCC"/>
<path d="M115.444 76.4277H80.7621V76.9122H115.444V76.4277Z" fill="#CCCCCC"/>
<path d="M92.0396 26.0411H91.5546V99.6831H92.0396V26.0411Z" fill="#CCCCCC"/>
<path d="M104.166 26.0411H103.681V99.6831H104.166V26.0411Z" fill="#CCCCCC"/>
</g>
<defs>
<clipPath id="clip0">
<rect width="211" height="126" fill="white"/>
</clipPath>
</defs>
</svg>
