<svg width="194" height="22" viewBox="0 0 194 22" fill="none" xmlns="http://www.w3.org/2000/svg">
<path d="M4.35156 14.7109C3.55469 13.6328 2.75781 12.2188 1.96094 10.4688L0.4375 7.1875C0.359375 7.01562 0.3125 6.82812 0.296875 6.625C0.265625 6.1875 0.398438 5.8125 0.695312 5.5C0.992188 5.1875 1.38281 5.03125 1.86719 5.03125C2.39844 5.03125 2.78906 5.14062 3.03906 5.35938C3.30469 5.5625 3.51562 5.82812 3.67188 6.15625L4.77344 8.875C5.05469 9.51562 5.32812 10.125 5.59375 10.7031C5.875 11.2656 6.1875 11.7812 6.53125 12.25C6.89062 12.7188 7.28906 12.9688 7.72656 13C8.14844 12.9688 8.54688 12.7188 8.92188 12.25C9.25 11.7812 9.54688 11.2656 9.8125 10.7031C10.0938 10.125 10.375 9.51562 10.6562 8.875L11.7578 6.15625C11.9141 5.82812 12.1172 5.5625 12.3672 5.35938C12.6328 5.14062 13.0312 5.03125 13.5625 5.03125C14.0469 5.03125 14.4375 5.1875 14.7344 5.5C15.0312 5.8125 15.1641 6.1875 15.1328 6.625C15.1172 6.82812 15.0703 7.01562 14.9922 7.1875L13.4688 10.4688C12.6719 12.2188 11.875 13.6328 11.0781 14.7109C10.3125 15.7734 9.19531 16.3125 7.72656 16.3281C6.24219 16.3125 5.11719 15.7734 4.35156 14.7109ZM19.3516 5.07812C19.7734 5.09375 20.1328 5.25 20.4297 5.54688C20.7266 5.82812 20.8828 6.17969 20.8984 6.60156V14.7109C20.8047 15.6484 20.2891 16.1562 19.3516 16.2344C18.9141 16.2344 18.5312 16.0938 18.2031 15.8125C17.8906 15.5156 17.7344 15.1484 17.7344 14.7109V6.60156C17.75 6.16406 17.9141 5.80469 18.2266 5.52344C18.5391 5.22656 18.9141 5.07812 19.3516 5.07812ZM17.3828 2.03125C17.3828 1.59375 17.5703 1.21875 17.9453 0.90625C18.3203 0.59375 18.7734 0.4375 19.3047 0.4375C19.8359 0.4375 20.2891 0.59375 20.6641 0.90625C21.0391 1.21875 21.2266 1.59375 21.2266 2.03125C21.2266 2.48438 21.0391 2.86719 20.6641 3.17969C20.2891 3.49219 19.8359 3.64844 19.3047 3.64844C18.7734 3.64844 18.3203 3.49219 17.9453 3.17969C17.5703 2.86719 17.3828 2.48438 17.3828 2.03125ZM36.8594 14.7109V9.0625C36.8594 8.67188 36.6562 8.46875 36.25 8.45312H28.0469C27.75 8.46875 27.4922 8.60156 27.2734 8.85156C27.0547 9.08594 26.8906 9.36719 26.7812 9.69531C26.6875 10.0078 26.6406 10.3281 26.6406 10.6562C26.6406 10.9688 26.6875 11.2891 26.7812 11.6172C26.8906 11.9297 27.0547 12.2109 27.2734 12.4609C27.4922 12.6953 27.75 12.8125 28.0469 12.8125H34.0469C34.4844 12.8125 34.8516 12.9688 35.1484 13.2812C35.4609 13.5781 35.6172 13.9453 35.6172 14.3828C35.6172 14.8203 35.4609 15.1875 35.1484 15.4844C34.8516 15.7969 34.4844 15.9531 34.0469 15.9531H28.1406C27.0469 15.9375 26.1406 15.6328 25.4219 15.0391C24.7188 14.4297 24.2109 13.75 23.8984 13C23.6016 12.2344 23.4531 11.4453 23.4531 10.6328C23.4531 9.85156 23.6094 9.08594 23.9219 8.33594C24.2344 7.57031 24.7422 6.89062 25.4453 6.29688C26.1484 5.6875 27.1875 5.35938 28.5625 5.3125H38.4062C38.8438 5.3125 39.2188 5.46094 39.5312 5.75781C39.8438 6.03906 40.0078 6.39844 40.0234 6.83594V14.7109C40.0234 15.1484 39.8594 15.5156 39.5312 15.8125C39.2188 16.0938 38.8438 16.2344 38.4062 16.2344C37.4688 16.1562 36.9531 15.6484 36.8594 14.7109ZM57.9297 6.67188C57.9297 7.0625 57.7734 7.39062 57.4609 7.65625C57.1641 7.90625 56.7969 8.03125 56.3594 8.03125H46.4453C46.2422 8.03125 46.0781 8.07031 45.9531 8.14844C45.8281 8.22656 45.7344 8.3125 45.6719 8.40625C45.6094 8.48438 45.5781 8.55469 45.5781 8.61719C45.5781 8.69531 45.6094 8.78125 45.6719 8.875C45.7344 8.95312 45.8281 9.03125 45.9531 9.10938C46.0781 9.17188 46.2422 9.21094 46.4453 9.22656H54.1094C55.0938 9.24219 55.9062 9.4375 56.5469 9.8125C57.1875 10.1719 57.6406 10.6016 57.9062 11.1016C58.1875 11.5859 58.3281 12.0781 58.3281 12.5781C58.3281 13.0625 58.1875 13.5547 57.9062 14.0547C57.625 14.5391 57.1641 14.9688 56.5234 15.3438C55.8984 15.7031 55.0938 15.8828 54.1094 15.8828C53.9375 15.8984 53.8125 15.9062 53.7344 15.9062H44.6406C44.2031 15.9062 43.8281 15.7812 43.5156 15.5312C43.2188 15.2656 43.0703 14.9453 43.0703 14.5703C43.0703 14.1797 43.2266 13.8516 43.5391 13.5859C43.8359 13.3359 44.2031 13.2109 44.6406 13.2109H54.2969C54.5312 13.2266 54.7188 13.1953 54.8594 13.1172C55.0156 13.0391 55.1328 12.9531 55.2109 12.8594C55.2891 12.7656 55.3281 12.6719 55.3281 12.5781C55.3281 12.5312 55.2891 12.4531 55.2109 12.3438C55.1328 12.2188 55.0156 12.125 54.8594 12.0625C54.7188 11.9844 54.5312 11.9375 54.2969 11.9219H46.6094C45.7031 11.9062 44.9531 11.7188 44.3594 11.3594C43.7656 10.9844 43.3438 10.5547 43.0938 10.0703C42.8438 9.58594 42.7188 9.10156 42.7188 8.61719C42.7188 8.13281 42.8438 7.65625 43.0938 7.1875C43.3594 6.70312 43.7812 6.28906 44.3594 5.94531C44.9531 5.58594 45.7031 5.39062 46.6094 5.35938C46.7656 5.34375 46.8828 5.33594 46.9609 5.33594H56.3594C56.7969 5.33594 57.1641 5.46875 57.4609 5.73438C57.7734 5.98438 57.9297 6.29688 57.9297 6.67188ZM62.5469 1.75C62.9688 1.76562 63.3281 1.92188 63.625 2.21875C63.9219 2.5 64.0781 2.85156 64.0938 3.27344V5.3125H71.3594C72.4531 5.32812 73.3516 5.64062 74.0547 6.25C74.7734 6.84375 75.2812 7.51562 75.5781 8.26562C75.8906 9.03125 76.0469 9.82031 76.0469 10.6328H76.0703V14.7109C76.0703 15.1484 75.9062 15.5156 75.5781 15.8125C75.2656 16.0938 74.8906 16.2344 74.4531 16.2344C73.5156 16.1562 73 15.6484 72.9062 14.7109V10.6094C72.9062 10.3125 72.8438 10 72.7188 9.67188C72.6094 9.34375 72.4453 9.0625 72.2266 8.82812C72.0078 8.57812 71.75 8.45312 71.4531 8.45312H64.0938V14.7578C64 15.6953 63.4844 16.2031 62.5469 16.2812C62.1094 16.2812 61.7266 16.1406 61.3984 15.8594C61.0859 15.5625 60.9297 15.1953 60.9297 14.7578V3.27344C60.9453 2.83594 61.1094 2.47656 61.4219 2.19531C61.7344 1.89844 62.1094 1.75 62.5469 1.75ZM83.875 15.9531C82.5 15.9062 81.4609 15.5859 80.7578 14.9922C80.0547 14.3828 79.5469 13.7031 79.2344 12.9531C78.9219 12.1875 78.7656 11.4141 78.7656 10.6328C78.7656 9.82031 78.9141 9.03906 79.2109 8.28906C79.5234 7.52344 80.0312 6.84375 80.7344 6.25C81.4531 5.64062 82.3594 5.32812 83.4531 5.3125H91.0469C92.1406 5.32812 93.0391 5.64062 93.7422 6.25C94.4609 6.84375 94.9688 7.52344 95.2656 8.28906C95.5781 9.03906 95.7344 9.82031 95.7344 10.6328C95.7344 11.4141 95.5781 12.1875 95.2656 12.9531C94.9531 13.7031 94.4453 14.3828 93.7422 14.9922C93.0391 15.5859 92 15.9062 90.625 15.9531H83.875ZM83.3594 8.45312C83.0625 8.45312 82.8047 8.57812 82.5859 8.82812C82.3672 9.0625 82.2031 9.34375 82.0938 9.67188C82 9.98438 81.9531 10.2969 81.9531 10.6094C81.9531 10.9375 82 11.2656 82.0938 11.5938C82.2031 11.9062 82.3672 12.1875 82.5859 12.4375C82.8047 12.6719 83.0625 12.7969 83.3594 12.8125H91.1406C91.4375 12.7969 91.6953 12.6719 91.9141 12.4375C92.1328 12.1875 92.2891 11.9062 92.3828 11.5938C92.4922 11.2656 92.5469 10.9375 92.5469 10.6094C92.5469 10.2969 92.4922 9.98438 92.3828 9.67188C92.2891 9.34375 92.1328 9.0625 91.9141 8.82812C91.6953 8.57812 91.4375 8.45312 91.1406 8.45312H83.3594ZM101.594 17.9922C101.5 18.9297 100.984 19.4375 100.047 19.5156C99.6094 19.5156 99.2266 19.3672 98.8984 19.0703C98.5859 18.7891 98.4297 18.4297 98.4297 17.9922V6.83594C98.4453 6.39844 98.6094 6.03906 98.9219 5.75781C99.2344 5.46094 99.6094 5.3125 100.047 5.3125H109.891C111.266 5.35938 112.305 5.6875 113.008 6.29688C113.711 6.89062 114.219 7.57031 114.531 8.33594C114.844 9.08594 115 9.85156 115 10.6328C115 11.4453 114.844 12.2344 114.531 13C114.234 13.75 113.727 14.4297 113.008 15.0391C112.305 15.6328 111.406 15.9375 110.312 15.9531H104.406C103.969 15.9531 103.602 15.7969 103.305 15.4844C102.992 15.1875 102.836 14.8203 102.836 14.3828C102.836 13.9453 102.984 13.5781 103.281 13.2812C103.594 12.9688 103.969 12.8125 104.406 12.8125H110.406C110.703 12.8125 110.961 12.6953 111.18 12.4609C111.398 12.2109 111.555 11.9297 111.648 11.6172C111.758 11.2891 111.812 10.9688 111.812 10.6562C111.812 10.3281 111.758 10.0078 111.648 9.69531C111.555 9.36719 111.398 9.08594 111.18 8.85156C110.961 8.60156 110.703 8.46875 110.406 8.45312H102.203C101.797 8.46875 101.594 8.67188 101.594 9.0625V17.9922ZM120.273 16.3281C119.648 16.3281 119.125 16.1094 118.703 15.6719C118.297 15.2344 118.094 14.6875 118.094 14.0312C118.094 13.375 118.297 12.8281 118.703 12.3906C119.125 11.9531 119.648 11.7344 120.273 11.7344C120.898 11.7344 121.422 11.9531 121.844 12.3906C122.266 12.8281 122.477 13.375 122.477 14.0312C122.477 14.6875 122.266 15.2344 121.844 15.6719C121.422 16.1094 120.898 16.3281 120.273 16.3281ZM130.609 4.96094C131.156 4.96094 131.688 5.05469 132.203 5.24219C132.734 5.42969 133.242 5.70312 133.727 6.0625C133.805 6.14062 133.891 6.21875 133.984 6.29688C134.062 6.21875 134.148 6.14062 134.242 6.0625C134.727 5.70312 135.227 5.42969 135.742 5.24219C136.273 5.05469 136.805 4.96094 137.336 4.96094C137.883 4.96094 138.414 5.05469 138.93 5.24219C139.461 5.42969 139.961 5.71094 140.43 6.08594C140.914 6.44531 141.336 6.92969 141.695 7.53906C142.07 8.14844 142.258 8.875 142.258 9.71875V14.7109C142.164 15.6484 141.648 16.1562 140.711 16.2344C140.273 16.2344 139.891 16.0938 139.562 15.8125C139.25 15.5156 139.094 15.1484 139.094 14.7109V9.90625C139.094 9.53125 139.023 9.21875 138.883 8.96875C138.742 8.70312 138.586 8.5 138.414 8.35938C138.242 8.20312 138.062 8.09375 137.875 8.03125C137.688 7.95312 137.5 7.91406 137.312 7.91406C137.125 7.91406 136.938 7.95312 136.75 8.03125C136.578 8.09375 136.406 8.20312 136.234 8.35938C136.062 8.5 135.906 8.70312 135.766 8.96875C135.625 9.21875 135.547 9.53125 135.531 9.90625V14.7109C135.438 15.6484 134.922 16.1562 133.984 16.2344C133.547 16.2344 133.164 16.0938 132.836 15.8125C132.523 15.5156 132.367 15.1484 132.367 14.7109V9.90625C132.367 9.53125 132.297 9.21875 132.156 8.96875C132.016 8.70312 131.859 8.5 131.688 8.35938C131.516 8.20312 131.336 8.09375 131.148 8.03125C130.961 7.95312 130.773 7.91406 130.586 7.91406C130.398 7.91406 130.211 7.95312 130.023 8.03125C129.852 8.09375 129.68 8.20312 129.508 8.35938C129.336 8.5 129.18 8.70312 129.039 8.96875C128.898 9.21875 128.82 9.53125 128.805 9.90625V14.7109C128.727 15.6484 128.219 16.1562 127.281 16.2344C126.844 16.2344 126.461 16.0938 126.133 15.8125C125.82 15.5156 125.664 15.1484 125.664 14.7109V9.71875C125.695 8.875 125.891 8.14844 126.25 7.53906C126.609 6.92969 127.031 6.44531 127.516 6.08594C128 5.71094 128.5 5.42969 129.016 5.24219C129.547 5.05469 130.078 4.96094 130.609 4.96094ZM146.734 5.03125C147.172 5.03125 147.547 5.17969 147.859 5.47656C148.172 5.75781 148.336 6.11719 148.352 6.55469V8.92188C148.336 9.5625 148.375 10.1562 148.469 10.7031C148.578 11.2344 148.828 11.7109 149.219 12.1328C149.609 12.5547 150.102 12.7812 150.695 12.8125H156.953V6.60156C156.953 6.16406 157.109 5.80469 157.422 5.52344C157.75 5.22656 158.133 5.07812 158.57 5.07812C159.508 5.15625 160.023 5.66406 160.117 6.60156V14.2422C160.117 15.4922 159.945 16.6719 159.602 17.7812C159.289 18.7656 158.773 19.5938 158.055 20.2656C157.352 20.9531 156.453 21.3281 155.359 21.3906H147.25C146.828 21.375 146.469 21.2188 146.172 20.9219C145.891 20.6406 145.742 20.2891 145.727 19.8672C145.727 19.4297 145.867 19.0547 146.148 18.7422C146.445 18.4297 146.812 18.2656 147.25 18.25H154.562C155.156 18.2188 155.648 17.9922 156.039 17.5703C156.43 17.1484 156.68 16.6562 156.789 16.0938C156.805 16.0469 156.812 16 156.812 15.9531H149.898C148.805 15.8906 147.898 15.5234 147.18 14.8516C146.477 14.1641 145.969 13.3281 145.656 12.3438C145.359 11.3594 145.203 10.3125 145.188 9.20312V6.55469C145.203 6.13281 145.359 5.78125 145.656 5.5C145.953 5.20312 146.312 5.04688 146.734 5.03125ZM165.602 16.3281C164.977 16.3281 164.453 16.1094 164.031 15.6719C163.625 15.2344 163.422 14.6875 163.422 14.0312C163.422 13.375 163.625 12.8281 164.031 12.3906C164.453 11.9531 164.977 11.7344 165.602 11.7344C166.227 11.7344 166.75 11.9531 167.172 12.3906C167.594 12.8281 167.805 13.375 167.805 14.0312C167.805 14.6875 167.594 15.2344 167.172 15.6719C166.75 16.1094 166.227 16.3281 165.602 16.3281ZM172.586 5.07812C173.008 5.09375 173.367 5.25 173.664 5.54688C173.961 5.82812 174.117 6.17969 174.133 6.60156V14.7109C174.039 15.6484 173.523 16.1562 172.586 16.2344C172.148 16.2344 171.766 16.0938 171.438 15.8125C171.125 15.5156 170.969 15.1484 170.969 14.7109V6.60156C170.984 6.16406 171.148 5.80469 171.461 5.52344C171.773 5.22656 172.148 5.07812 172.586 5.07812ZM170.617 2.03125C170.617 1.59375 170.805 1.21875 171.18 0.90625C171.555 0.59375 172.008 0.4375 172.539 0.4375C173.07 0.4375 173.523 0.59375 173.898 0.90625C174.273 1.21875 174.461 1.59375 174.461 2.03125C174.461 2.48438 174.273 2.86719 173.898 3.17969C173.523 3.49219 173.07 3.64844 172.539 3.64844C172.008 3.64844 171.555 3.49219 171.18 3.17969C170.805 2.86719 170.617 2.48438 170.617 2.03125ZM190.047 3.27344C190.141 2.33594 190.656 1.82813 191.594 1.75C192.031 1.75 192.406 1.89844 192.719 2.19531C193.047 2.47656 193.211 2.83594 193.211 3.27344V14.4297C193.195 14.8672 193.031 15.2344 192.719 15.5312C192.406 15.8125 192.031 15.9531 191.594 15.9531H181.75C180.375 15.9062 179.336 15.5859 178.633 14.9922C177.93 14.3828 177.422 13.7031 177.109 12.9531C176.797 12.1875 176.641 11.4141 176.641 10.6328C176.641 9.82031 176.789 9.03906 177.086 8.28906C177.398 7.52344 177.906 6.84375 178.609 6.25C179.328 5.64062 180.234 5.32812 181.328 5.3125H187.234C187.672 5.3125 188.039 5.46875 188.336 5.78125C188.648 6.07812 188.805 6.44531 188.805 6.88281C188.805 7.32031 188.648 7.69531 188.336 8.00781C188.039 8.30469 187.672 8.45312 187.234 8.45312H181.234C180.938 8.45312 180.68 8.57812 180.461 8.82812C180.242 9.0625 180.078 9.34375 179.969 9.67188C179.875 9.98438 179.828 10.2969 179.828 10.6094C179.828 10.9375 179.875 11.2656 179.969 11.5938C180.078 11.9062 180.242 12.1875 180.461 12.4375C180.68 12.6719 180.938 12.7969 181.234 12.8125H189.438C189.844 12.7969 190.047 12.5938 190.047 12.2031V3.27344Z" fill="#008D8E"/>
</svg>
