<svg width="98" height="11" viewBox="0 0 98 11" fill="none" xmlns="http://www.w3.org/2000/svg">
<path d="M2.67578 7.35547C2.27734 6.81641 1.87891 6.10938 1.48047 5.23438L0.71875 3.59375C0.679688 3.50781 0.65625 3.41406 0.648438 3.3125C0.632812 3.09375 0.699219 2.90625 0.847656 2.75C0.996094 2.59375 1.19141 2.51562 1.43359 2.51562C1.69922 2.51562 1.89453 2.57031 2.01953 2.67969C2.15234 2.78125 2.25781 2.91406 2.33594 3.07812L2.88672 4.4375C3.02734 4.75781 3.16406 5.0625 3.29688 5.35156C3.4375 5.63281 3.59375 5.89062 3.76562 6.125C3.94531 6.35938 4.14453 6.48438 4.36328 6.5C4.57422 6.48438 4.77344 6.35938 4.96094 6.125C5.125 5.89062 5.27344 5.63281 5.40625 5.35156C5.54688 5.0625 5.6875 4.75781 5.82812 4.4375L6.37891 3.07812C6.45703 2.91406 6.55859 2.78125 6.68359 2.67969C6.81641 2.57031 7.01562 2.51562 7.28125 2.51562C7.52344 2.51562 7.71875 2.59375 7.86719 2.75C8.01562 2.90625 8.08203 3.09375 8.06641 3.3125C8.05859 3.41406 8.03516 3.50781 7.99609 3.59375L7.23438 5.23438C6.83594 6.10938 6.4375 6.81641 6.03906 7.35547C5.65625 7.88672 5.09766 8.15625 4.36328 8.16406C3.62109 8.15625 3.05859 7.88672 2.67578 7.35547ZM10.1758 2.53906C10.3867 2.54688 10.5664 2.625 10.7148 2.77344C10.8633 2.91406 10.9414 3.08984 10.9492 3.30078V7.35547C10.9023 7.82422 10.6445 8.07812 10.1758 8.11719C9.95703 8.11719 9.76562 8.04688 9.60156 7.90625C9.44531 7.75781 9.36719 7.57422 9.36719 7.35547V3.30078C9.375 3.08203 9.45703 2.90234 9.61328 2.76172C9.76953 2.61328 9.95703 2.53906 10.1758 2.53906ZM9.19141 1.01562C9.19141 0.796875 9.28516 0.609375 9.47266 0.453125C9.66016 0.296875 9.88672 0.21875 10.1523 0.21875C10.418 0.21875 10.6445 0.296875 10.832 0.453125C11.0195 0.609375 11.1133 0.796875 11.1133 1.01562C11.1133 1.24219 11.0195 1.43359 10.832 1.58984C10.6445 1.74609 10.418 1.82422 10.1523 1.82422C9.88672 1.82422 9.66016 1.74609 9.47266 1.58984C9.28516 1.43359 9.19141 1.24219 9.19141 1.01562ZM18.9297 7.35547V4.53125C18.9297 4.33594 18.8281 4.23438 18.625 4.22656H14.5234C14.375 4.23438 14.2461 4.30078 14.1367 4.42578C14.0273 4.54297 13.9453 4.68359 13.8906 4.84766C13.8438 5.00391 13.8203 5.16406 13.8203 5.32812C13.8203 5.48438 13.8438 5.64453 13.8906 5.80859C13.9453 5.96484 14.0273 6.10547 14.1367 6.23047C14.2461 6.34766 14.375 6.40625 14.5234 6.40625H17.5234C17.7422 6.40625 17.9258 6.48438 18.0742 6.64062C18.2305 6.78906 18.3086 6.97266 18.3086 7.19141C18.3086 7.41016 18.2305 7.59375 18.0742 7.74219C17.9258 7.89844 17.7422 7.97656 17.5234 7.97656H14.5703C14.0234 7.96875 13.5703 7.81641 13.2109 7.51953C12.8594 7.21484 12.6055 6.875 12.4492 6.5C12.3008 6.11719 12.2266 5.72266 12.2266 5.31641C12.2266 4.92578 12.3047 4.54297 12.4609 4.16797C12.6172 3.78516 12.8711 3.44531 13.2227 3.14844C13.5742 2.84375 14.0938 2.67969 14.7812 2.65625H19.7031C19.9219 2.65625 20.1094 2.73047 20.2656 2.87891C20.4219 3.01953 20.5039 3.19922 20.5117 3.41797V7.35547C20.5117 7.57422 20.4297 7.75781 20.2656 7.90625C20.1094 8.04688 19.9219 8.11719 19.7031 8.11719C19.2344 8.07812 18.9766 7.82422 18.9297 7.35547ZM29.4648 3.33594C29.4648 3.53125 29.3867 3.69531 29.2305 3.82812C29.082 3.95312 28.8984 4.01562 28.6797 4.01562H23.7227C23.6211 4.01562 23.5391 4.03516 23.4766 4.07422C23.4141 4.11328 23.3672 4.15625 23.3359 4.20312C23.3047 4.24219 23.2891 4.27734 23.2891 4.30859C23.2891 4.34766 23.3047 4.39062 23.3359 4.4375C23.3672 4.47656 23.4141 4.51562 23.4766 4.55469C23.5391 4.58594 23.6211 4.60547 23.7227 4.61328H27.5547C28.0469 4.62109 28.4531 4.71875 28.7734 4.90625C29.0938 5.08594 29.3203 5.30078 29.4531 5.55078C29.5938 5.79297 29.6641 6.03906 29.6641 6.28906C29.6641 6.53125 29.5938 6.77734 29.4531 7.02734C29.3125 7.26953 29.082 7.48438 28.7617 7.67188C28.4492 7.85156 28.0469 7.94141 27.5547 7.94141C27.4688 7.94922 27.4062 7.95312 27.3672 7.95312H22.8203C22.6016 7.95312 22.4141 7.89062 22.2578 7.76562C22.1094 7.63281 22.0352 7.47266 22.0352 7.28516C22.0352 7.08984 22.1133 6.92578 22.2695 6.79297C22.418 6.66797 22.6016 6.60547 22.8203 6.60547H27.6484C27.7656 6.61328 27.8594 6.59766 27.9297 6.55859C28.0078 6.51953 28.0664 6.47656 28.1055 6.42969C28.1445 6.38281 28.1641 6.33594 28.1641 6.28906C28.1641 6.26562 28.1445 6.22656 28.1055 6.17188C28.0664 6.10938 28.0078 6.0625 27.9297 6.03125C27.8594 5.99219 27.7656 5.96875 27.6484 5.96094H23.8047C23.3516 5.95312 22.9766 5.85938 22.6797 5.67969C22.3828 5.49219 22.1719 5.27734 22.0469 5.03516C21.9219 4.79297 21.8594 4.55078 21.8594 4.30859C21.8594 4.06641 21.9219 3.82812 22.0469 3.59375C22.1797 3.35156 22.3906 3.14453 22.6797 2.97266C22.9766 2.79297 23.3516 2.69531 23.8047 2.67969C23.8828 2.67188 23.9414 2.66797 23.9805 2.66797H28.6797C28.8984 2.66797 29.082 2.73438 29.2305 2.86719C29.3867 2.99219 29.4648 3.14844 29.4648 3.33594ZM31.7734 0.875C31.9844 0.882812 32.1641 0.960938 32.3125 1.10938C32.4609 1.25 32.5391 1.42578 32.5469 1.63672V2.65625H36.1797C36.7266 2.66406 37.1758 2.82031 37.5273 3.125C37.8867 3.42188 38.1406 3.75781 38.2891 4.13281C38.4453 4.51562 38.5234 4.91016 38.5234 5.31641H38.5352V7.35547C38.5352 7.57422 38.4531 7.75781 38.2891 7.90625C38.1328 8.04688 37.9453 8.11719 37.7266 8.11719C37.2578 8.07812 37 7.82422 36.9531 7.35547V5.30469C36.9531 5.15625 36.9219 5 36.8594 4.83594C36.8047 4.67188 36.7227 4.53125 36.6133 4.41406C36.5039 4.28906 36.375 4.22656 36.2266 4.22656H32.5469V7.37891C32.5 7.84766 32.2422 8.10156 31.7734 8.14062C31.5547 8.14062 31.3633 8.07031 31.1992 7.92969C31.043 7.78125 30.9648 7.59766 30.9648 7.37891V1.63672C30.9727 1.41797 31.0547 1.23828 31.2109 1.09766C31.3672 0.949219 31.5547 0.875 31.7734 0.875ZM42.4375 7.97656C41.75 7.95312 41.2305 7.79297 40.8789 7.49609C40.5273 7.19141 40.2734 6.85156 40.1172 6.47656C39.9609 6.09375 39.8828 5.70703 39.8828 5.31641C39.8828 4.91016 39.957 4.51953 40.1055 4.14453C40.2617 3.76172 40.5156 3.42188 40.8672 3.125C41.2266 2.82031 41.6797 2.66406 42.2266 2.65625H46.0234C46.5703 2.66406 47.0195 2.82031 47.3711 3.125C47.7305 3.42188 47.9844 3.76172 48.1328 4.14453C48.2891 4.51953 48.3672 4.91016 48.3672 5.31641C48.3672 5.70703 48.2891 6.09375 48.1328 6.47656C47.9766 6.85156 47.7227 7.19141 47.3711 7.49609C47.0195 7.79297 46.5 7.95312 45.8125 7.97656H42.4375ZM42.1797 4.22656C42.0312 4.22656 41.9023 4.28906 41.793 4.41406C41.6836 4.53125 41.6016 4.67188 41.5469 4.83594C41.5 4.99219 41.4766 5.14844 41.4766 5.30469C41.4766 5.46875 41.5 5.63281 41.5469 5.79688C41.6016 5.95312 41.6836 6.09375 41.793 6.21875C41.9023 6.33594 42.0312 6.39844 42.1797 6.40625H46.0703C46.2188 6.39844 46.3477 6.33594 46.457 6.21875C46.5664 6.09375 46.6445 5.95312 46.6914 5.79688C46.7461 5.63281 46.7734 5.46875 46.7734 5.30469C46.7734 5.14844 46.7461 4.99219 46.6914 4.83594C46.6445 4.67188 46.5664 4.53125 46.457 4.41406C46.3477 4.28906 46.2188 4.22656 46.0703 4.22656H42.1797ZM51.2969 8.99609C51.25 9.46484 50.9922 9.71875 50.5234 9.75781C50.3047 9.75781 50.1133 9.68359 49.9492 9.53516C49.793 9.39453 49.7148 9.21484 49.7148 8.99609V3.41797C49.7227 3.19922 49.8047 3.01953 49.9609 2.87891C50.1172 2.73047 50.3047 2.65625 50.5234 2.65625H55.4453C56.1328 2.67969 56.6523 2.84375 57.0039 3.14844C57.3555 3.44531 57.6094 3.78516 57.7656 4.16797C57.9219 4.54297 58 4.92578 58 5.31641C58 5.72266 57.9219 6.11719 57.7656 6.5C57.6172 6.875 57.3633 7.21484 57.0039 7.51953C56.6523 7.81641 56.2031 7.96875 55.6562 7.97656H52.7031C52.4844 7.97656 52.3008 7.89844 52.1523 7.74219C51.9961 7.59375 51.918 7.41016 51.918 7.19141C51.918 6.97266 51.9922 6.78906 52.1406 6.64062C52.2969 6.48438 52.4844 6.40625 52.7031 6.40625H55.7031C55.8516 6.40625 55.9805 6.34766 56.0898 6.23047C56.1992 6.10547 56.2773 5.96484 56.3242 5.80859C56.3789 5.64453 56.4062 5.48438 56.4062 5.32812C56.4062 5.16406 56.3789 5.00391 56.3242 4.84766C56.2773 4.68359 56.1992 4.54297 56.0898 4.42578C55.9805 4.30078 55.8516 4.23438 55.7031 4.22656H51.6016C51.3984 4.23438 51.2969 4.33594 51.2969 4.53125V8.99609ZM60.6367 8.16406C60.3242 8.16406 60.0625 8.05469 59.8516 7.83594C59.6484 7.61719 59.5469 7.34375 59.5469 7.01562C59.5469 6.6875 59.6484 6.41406 59.8516 6.19531C60.0625 5.97656 60.3242 5.86719 60.6367 5.86719C60.9492 5.86719 61.2109 5.97656 61.4219 6.19531C61.6328 6.41406 61.7383 6.6875 61.7383 7.01562C61.7383 7.34375 61.6328 7.61719 61.4219 7.83594C61.2109 8.05469 60.9492 8.16406 60.6367 8.16406ZM65.8047 2.48047C66.0781 2.48047 66.3438 2.52734 66.6016 2.62109C66.8672 2.71484 67.1211 2.85156 67.3633 3.03125C67.4023 3.07031 67.4453 3.10938 67.4922 3.14844C67.5312 3.10938 67.5742 3.07031 67.6211 3.03125C67.8633 2.85156 68.1133 2.71484 68.3711 2.62109C68.6367 2.52734 68.9023 2.48047 69.168 2.48047C69.4414 2.48047 69.707 2.52734 69.9648 2.62109C70.2305 2.71484 70.4805 2.85547 70.7148 3.04297C70.957 3.22266 71.168 3.46484 71.3477 3.76953C71.5352 4.07422 71.6289 4.4375 71.6289 4.85938V7.35547C71.582 7.82422 71.3242 8.07812 70.8555 8.11719C70.6367 8.11719 70.4453 8.04688 70.2812 7.90625C70.125 7.75781 70.0469 7.57422 70.0469 7.35547V4.95312C70.0469 4.76562 70.0117 4.60938 69.9414 4.48438C69.8711 4.35156 69.793 4.25 69.707 4.17969C69.6211 4.10156 69.5312 4.04688 69.4375 4.01562C69.3438 3.97656 69.25 3.95703 69.1562 3.95703C69.0625 3.95703 68.9688 3.97656 68.875 4.01562C68.7891 4.04688 68.7031 4.10156 68.6172 4.17969C68.5312 4.25 68.4531 4.35156 68.3828 4.48438C68.3125 4.60938 68.2734 4.76562 68.2656 4.95312V7.35547C68.2188 7.82422 67.9609 8.07812 67.4922 8.11719C67.2734 8.11719 67.082 8.04688 66.918 7.90625C66.7617 7.75781 66.6836 7.57422 66.6836 7.35547V4.95312C66.6836 4.76562 66.6484 4.60938 66.5781 4.48438C66.5078 4.35156 66.4297 4.25 66.3438 4.17969C66.2578 4.10156 66.168 4.04688 66.0742 4.01562C65.9805 3.97656 65.8867 3.95703 65.793 3.95703C65.6992 3.95703 65.6055 3.97656 65.5117 4.01562C65.4258 4.04688 65.3398 4.10156 65.2539 4.17969C65.168 4.25 65.0898 4.35156 65.0195 4.48438C64.9492 4.60938 64.9102 4.76562 64.9023 4.95312V7.35547C64.8633 7.82422 64.6094 8.07812 64.1406 8.11719C63.9219 8.11719 63.7305 8.04688 63.5664 7.90625C63.4102 7.75781 63.332 7.57422 63.332 7.35547V4.85938C63.3477 4.4375 63.4453 4.07422 63.625 3.76953C63.8047 3.46484 64.0156 3.22266 64.2578 3.04297C64.5 2.85547 64.75 2.71484 65.0078 2.62109C65.2734 2.52734 65.5391 2.48047 65.8047 2.48047ZM73.8672 2.51562C74.0859 2.51562 74.2734 2.58984 74.4297 2.73828C74.5859 2.87891 74.668 3.05859 74.6758 3.27734V4.46094C74.668 4.78125 74.6875 5.07812 74.7344 5.35156C74.7891 5.61719 74.9141 5.85547 75.1094 6.06641C75.3047 6.27734 75.5508 6.39062 75.8477 6.40625H78.9766V3.30078C78.9766 3.08203 79.0547 2.90234 79.2109 2.76172C79.375 2.61328 79.5664 2.53906 79.7852 2.53906C80.2539 2.57812 80.5117 2.83203 80.5586 3.30078V7.12109C80.5586 7.74609 80.4727 8.33594 80.3008 8.89062C80.1445 9.38281 79.8867 9.79688 79.5273 10.1328C79.1758 10.4766 78.7266 10.6641 78.1797 10.6953H74.125C73.9141 10.6875 73.7344 10.6094 73.5859 10.4609C73.4453 10.3203 73.3711 10.1445 73.3633 9.93359C73.3633 9.71484 73.4336 9.52734 73.5742 9.37109C73.7227 9.21484 73.9062 9.13281 74.125 9.125H77.7812C78.0781 9.10938 78.3242 8.99609 78.5195 8.78516C78.7148 8.57422 78.8398 8.32812 78.8945 8.04688C78.9023 8.02344 78.9062 8 78.9062 7.97656H75.4492C74.9023 7.94531 74.4492 7.76172 74.0898 7.42578C73.7383 7.08203 73.4844 6.66406 73.3281 6.17188C73.1797 5.67969 73.1016 5.15625 73.0938 4.60156V3.27734C73.1016 3.06641 73.1797 2.89062 73.3281 2.75C73.4766 2.60156 73.6562 2.52344 73.8672 2.51562ZM83.3008 8.16406C82.9883 8.16406 82.7266 8.05469 82.5156 7.83594C82.3125 7.61719 82.2109 7.34375 82.2109 7.01562C82.2109 6.6875 82.3125 6.41406 82.5156 6.19531C82.7266 5.97656 82.9883 5.86719 83.3008 5.86719C83.6133 5.86719 83.875 5.97656 84.0859 6.19531C84.2969 6.41406 84.4023 6.6875 84.4023 7.01562C84.4023 7.34375 84.2969 7.61719 84.0859 7.83594C83.875 8.05469 83.6133 8.16406 83.3008 8.16406ZM86.793 2.53906C87.0039 2.54688 87.1836 2.625 87.332 2.77344C87.4805 2.91406 87.5586 3.08984 87.5664 3.30078V7.35547C87.5195 7.82422 87.2617 8.07812 86.793 8.11719C86.5742 8.11719 86.3828 8.04688 86.2188 7.90625C86.0625 7.75781 85.9844 7.57422 85.9844 7.35547V3.30078C85.9922 3.08203 86.0742 2.90234 86.2305 2.76172C86.3867 2.61328 86.5742 2.53906 86.793 2.53906ZM85.8086 1.01562C85.8086 0.796875 85.9023 0.609375 86.0898 0.453125C86.2773 0.296875 86.5039 0.21875 86.7695 0.21875C87.0352 0.21875 87.2617 0.296875 87.4492 0.453125C87.6367 0.609375 87.7305 0.796875 87.7305 1.01562C87.7305 1.24219 87.6367 1.43359 87.4492 1.58984C87.2617 1.74609 87.0352 1.82422 86.7695 1.82422C86.5039 1.82422 86.2773 1.74609 86.0898 1.58984C85.9023 1.43359 85.8086 1.24219 85.8086 1.01562ZM95.5234 1.63672C95.5703 1.16797 95.8281 0.914063 96.2969 0.875C96.5156 0.875 96.7031 0.949219 96.8594 1.09766C97.0234 1.23828 97.1055 1.41797 97.1055 1.63672V7.21484C97.0977 7.43359 97.0156 7.61719 96.8594 7.76562C96.7031 7.90625 96.5156 7.97656 96.2969 7.97656H91.375C90.6875 7.95312 90.168 7.79297 89.8164 7.49609C89.4648 7.19141 89.2109 6.85156 89.0547 6.47656C88.8984 6.09375 88.8203 5.70703 88.8203 5.31641C88.8203 4.91016 88.8945 4.51953 89.043 4.14453C89.1992 3.76172 89.4531 3.42188 89.8047 3.125C90.1641 2.82031 90.6172 2.66406 91.1641 2.65625H94.1172C94.3359 2.65625 94.5195 2.73438 94.668 2.89062C94.8242 3.03906 94.9023 3.22266 94.9023 3.44141C94.9023 3.66016 94.8242 3.84766 94.668 4.00391C94.5195 4.15234 94.3359 4.22656 94.1172 4.22656H91.1172C90.9688 4.22656 90.8398 4.28906 90.7305 4.41406C90.6211 4.53125 90.5391 4.67188 90.4844 4.83594C90.4375 4.99219 90.4141 5.14844 90.4141 5.30469C90.4141 5.46875 90.4375 5.63281 90.4844 5.79688C90.5391 5.95312 90.6211 6.09375 90.7305 6.21875C90.8398 6.33594 90.9688 6.39844 91.1172 6.40625H95.2188C95.4219 6.39844 95.5234 6.29688 95.5234 6.10156V1.63672Z" fill="white"/>
</svg>
