<svg width="271" height="35" viewBox="0 0 271 35" fill="none" xmlns="http://www.w3.org/2000/svg">
<path d="M0.929688 9.35156C0.929688 8.30859 1.12891 7.33008 1.52734 6.41602C1.92578 5.50195 2.46484 4.70508 3.14453 4.02539C3.83594 3.33398 4.63867 2.78906 5.55273 2.39062C6.4668 1.99219 7.44531 1.79297 8.48828 1.79297H20.0547V6.83789H8.48828C8.13672 6.83789 7.80859 6.90234 7.50391 7.03125C7.19922 7.16016 6.92969 7.3418 6.69531 7.57617C6.47266 7.79883 6.29688 8.0625 6.16797 8.36719C6.03906 8.67188 5.97461 9 5.97461 9.35156C5.97461 9.70312 6.03906 10.0371 6.16797 10.3535C6.29688 10.6582 6.47266 10.9277 6.69531 11.1621C6.92969 11.3848 7.19922 11.5605 7.50391 11.6895C7.80859 11.8184 8.13672 11.8828 8.48828 11.8828H13.5332C14.5762 11.8828 15.5547 12.082 16.4688 12.4805C17.3945 12.8672 18.1973 13.4062 18.877 14.0977C19.5684 14.7773 20.1074 15.5801 20.4941 16.5059C20.8926 17.4199 21.0918 18.3984 21.0918 19.4414C21.0918 20.4844 20.8926 21.4629 20.4941 22.377C20.1074 23.291 19.5684 24.0938 18.877 24.7852C18.1973 25.4648 17.3945 26.0039 16.4688 26.4023C15.5547 26.8008 14.5762 27 13.5332 27H2.33594V21.9551H13.5332C13.8848 21.9551 14.2129 21.8906 14.5176 21.7617C14.8223 21.6328 15.0859 21.457 15.3086 21.2344C15.543 21 15.7246 20.7305 15.8535 20.4258C15.9824 20.1211 16.0469 19.793 16.0469 19.4414C16.0469 19.0898 15.9824 18.7617 15.8535 18.457C15.7246 18.1523 15.543 17.8887 15.3086 17.666C15.0859 17.4316 14.8223 17.25 14.5176 17.1211C14.2129 16.9922 13.8848 16.9277 13.5332 16.9277H8.48828C7.44531 16.9277 6.4668 16.7285 5.55273 16.3301C4.63867 15.9316 3.83594 15.3926 3.14453 14.7129C2.46484 14.0215 1.92578 13.2188 1.52734 12.3047C1.12891 11.3789 0.929688 10.3945 0.929688 9.35156ZM31.3926 22.3945C31.5801 22.4531 31.7676 22.4941 31.9551 22.5176C32.1426 22.5293 32.3301 22.5352 32.5176 22.5352C32.9863 22.5352 33.4375 22.4707 33.8711 22.3418C34.3047 22.2129 34.709 22.0312 35.084 21.7969C35.4707 21.5508 35.8105 21.2578 36.1035 20.918C36.4082 20.5664 36.6543 20.1797 36.8418 19.7578L40.3574 23.291C39.9121 23.9238 39.3965 24.4922 38.8105 24.9961C38.2363 25.5 37.6094 25.9277 36.9297 26.2793C36.2617 26.6309 35.5527 26.8945 34.8027 27.0703C34.0645 27.2578 33.3027 27.3516 32.5176 27.3516C31.1934 27.3516 29.9453 27.1055 28.7734 26.6133C27.6133 26.1211 26.5938 25.4355 25.7148 24.5566C24.8477 23.6777 24.1621 22.6348 23.6582 21.4277C23.1543 20.209 22.9023 18.873 22.9023 17.4199C22.9023 15.9316 23.1543 14.5723 23.6582 13.3418C24.1621 12.1113 24.8477 11.0625 25.7148 10.1953C26.5938 9.32812 27.6133 8.6543 28.7734 8.17383C29.9453 7.69336 31.1934 7.45312 32.5176 7.45312C33.3027 7.45312 34.0703 7.54688 34.8203 7.73438C35.5703 7.92188 36.2793 8.19141 36.9473 8.54297C37.627 8.89453 38.2598 9.32812 38.8457 9.84375C39.4316 10.3477 39.9473 10.916 40.3926 11.5488L31.3926 22.3945ZM33.8535 12.498C33.6309 12.416 33.4082 12.3633 33.1855 12.3398C32.9746 12.3164 32.752 12.3047 32.5176 12.3047C31.8613 12.3047 31.2402 12.4277 30.6543 12.6738C30.0801 12.9082 29.5762 13.248 29.1426 13.6934C28.7207 14.1387 28.3867 14.6777 28.1406 15.3105C27.8945 15.9316 27.7715 16.6348 27.7715 17.4199C27.7715 17.5957 27.7773 17.7949 27.7891 18.0176C27.8125 18.2402 27.8418 18.4688 27.877 18.7031C27.9238 18.9258 27.9766 19.1426 28.0352 19.3535C28.0938 19.5645 28.1699 19.752 28.2637 19.916L33.8535 12.498ZM47.6523 27H42.8184V0.685547H47.6523V27ZM69.5547 27H68.3945L66.5312 24.416C66.0742 24.8262 65.5879 25.2129 65.0723 25.5762C64.5684 25.9277 64.0352 26.2383 63.4727 26.5078C62.9102 26.7656 62.3301 26.9707 61.7324 27.123C61.1465 27.2754 60.5488 27.3516 59.9395 27.3516C58.6152 27.3516 57.3672 27.1289 56.1953 26.6836C55.0352 26.2383 54.0156 25.5938 53.1367 24.75C52.2695 23.8945 51.584 22.8516 51.0801 21.6211C50.5762 20.3906 50.3242 18.9902 50.3242 17.4199C50.3242 15.9551 50.5762 14.6133 51.0801 13.3945C51.584 12.1641 52.2695 11.1094 53.1367 10.2305C54.0156 9.35156 55.0352 8.67188 56.1953 8.19141C57.3672 7.69922 58.6152 7.45312 59.9395 7.45312C60.5488 7.45312 61.1523 7.5293 61.75 7.68164C62.3477 7.83398 62.9277 8.04492 63.4902 8.31445C64.0527 8.58398 64.5859 8.90039 65.0898 9.26367C65.6055 9.62695 66.0859 10.0195 66.5312 10.4414L68.3945 8.20898H69.5547V27ZM64.7207 17.4199C64.7207 16.7637 64.5918 16.1309 64.334 15.5215C64.0879 14.9004 63.748 14.3555 63.3145 13.8867C62.8809 13.4062 62.3711 13.0254 61.7852 12.7441C61.2109 12.4512 60.5957 12.3047 59.9395 12.3047C59.2832 12.3047 58.6621 12.416 58.0762 12.6387C57.502 12.8613 56.998 13.1895 56.5645 13.623C56.1426 14.0566 55.8086 14.5957 55.5625 15.2402C55.3164 15.873 55.1934 16.5996 55.1934 17.4199C55.1934 18.2402 55.3164 18.9727 55.5625 19.6172C55.8086 20.25 56.1426 20.7832 56.5645 21.2168C56.998 21.6504 57.502 21.9785 58.0762 22.2012C58.6621 22.4238 59.2832 22.5352 59.9395 22.5352C60.5957 22.5352 61.2109 22.3945 61.7852 22.1133C62.3711 21.8203 62.8809 21.4395 63.3145 20.9707C63.748 20.4902 64.0879 19.9453 64.334 19.3359C64.5918 18.7148 64.7207 18.0762 64.7207 17.4199ZM97.1699 27H92.3887V15.0469C92.3887 14.7188 92.3242 14.4082 92.1953 14.1152C92.0781 13.8223 91.9082 13.5645 91.6855 13.3418C91.4629 13.1191 91.2051 12.9492 90.9121 12.832C90.6191 12.7031 90.3086 12.6387 89.9805 12.6387C89.6523 12.6387 89.3418 12.7031 89.0488 12.832C88.7676 12.9492 88.5156 13.1191 88.293 13.3418C88.082 13.5645 87.9121 13.8223 87.7832 14.1152C87.666 14.4082 87.6074 14.7188 87.6074 15.0469V27H82.8086V15.0469C82.8086 14.7188 82.7441 14.4082 82.6152 14.1152C82.498 13.8223 82.3281 13.5645 82.1055 13.3418C81.8828 13.1191 81.625 12.9492 81.332 12.832C81.0391 12.7031 80.7285 12.6387 80.4004 12.6387C80.0723 12.6387 79.7617 12.7031 79.4688 12.832C79.1875 12.9492 78.9355 13.1191 78.7129 13.3418C78.502 13.5645 78.332 13.8223 78.2031 14.1152C78.0859 14.4082 78.0273 14.7188 78.0273 15.0469V27H73.2285V8.17383H74.3887L75.6895 9.61523C76.3574 9.05273 77.0898 8.61914 77.8867 8.31445C78.6953 7.99805 79.5332 7.83984 80.4004 7.83984C81.2793 7.83984 82.1348 8.00391 82.9668 8.33203C83.8105 8.66016 84.5488 9.22852 85.1816 10.0371C85.4746 9.63867 85.8086 9.29883 86.1836 9.01758C86.5586 8.73633 86.9512 8.50781 87.3613 8.33203C87.7832 8.15625 88.2168 8.0332 88.6621 7.96289C89.1074 7.88086 89.5469 7.83984 89.9805 7.83984C90.9766 7.83984 91.9082 8.02734 92.7754 8.40234C93.6543 8.77734 94.416 9.29297 95.0605 9.94922C95.7168 10.5938 96.2324 11.3555 96.6074 12.2344C96.9824 13.1133 97.1699 14.0508 97.1699 15.0469V27ZM118.914 27H117.754L115.891 24.416C115.434 24.8262 114.947 25.2129 114.432 25.5762C113.928 25.9277 113.395 26.2383 112.832 26.5078C112.27 26.7656 111.689 26.9707 111.092 27.123C110.506 27.2754 109.908 27.3516 109.299 27.3516C107.975 27.3516 106.727 27.1289 105.555 26.6836C104.395 26.2383 103.375 25.5938 102.496 24.75C101.629 23.8945 100.943 22.8516 100.439 21.6211C99.9355 20.3906 99.6836 18.9902 99.6836 17.4199C99.6836 15.9551 99.9355 14.6133 100.439 13.3945C100.943 12.1641 101.629 11.1094 102.496 10.2305C103.375 9.35156 104.395 8.67188 105.555 8.19141C106.727 7.69922 107.975 7.45312 109.299 7.45312C109.908 7.45312 110.512 7.5293 111.109 7.68164C111.707 7.83398 112.287 8.04492 112.85 8.31445C113.412 8.58398 113.945 8.90039 114.449 9.26367C114.965 9.62695 115.445 10.0195 115.891 10.4414L117.754 8.20898H118.914V27ZM114.08 17.4199C114.08 16.7637 113.951 16.1309 113.693 15.5215C113.447 14.9004 113.107 14.3555 112.674 13.8867C112.24 13.4062 111.73 13.0254 111.145 12.7441C110.57 12.4512 109.955 12.3047 109.299 12.3047C108.643 12.3047 108.021 12.416 107.436 12.6387C106.861 12.8613 106.357 13.1895 105.924 13.623C105.502 14.0566 105.168 14.5957 104.922 15.2402C104.676 15.873 104.553 16.5996 104.553 17.4199C104.553 18.2402 104.676 18.9727 104.922 19.6172C105.168 20.25 105.502 20.7832 105.924 21.2168C106.357 21.6504 106.861 21.9785 107.436 22.2012C108.021 22.4238 108.643 22.5352 109.299 22.5352C109.955 22.5352 110.57 22.3945 111.145 22.1133C111.73 21.8203 112.24 21.4395 112.674 20.9707C113.107 20.4902 113.447 19.9453 113.693 19.3359C113.951 18.7148 114.08 18.0762 114.08 17.4199ZM132.027 27C130.867 27 129.777 26.7832 128.758 26.3496C127.738 25.9043 126.842 25.3008 126.068 24.5391C125.307 23.7656 124.703 22.8691 124.258 21.8496C123.824 20.8301 123.607 19.7402 123.607 18.5801V12.9902H121.27V8.20898H123.607V0.685547H128.389V8.20898H135.666V12.9902H128.389V18.5801C128.389 19.084 128.482 19.5586 128.67 20.0039C128.857 20.4375 129.115 20.8184 129.443 21.1465C129.771 21.4746 130.158 21.7383 130.604 21.9375C131.049 22.125 131.523 22.2188 132.027 22.2188H135.666V27H132.027ZM169.17 14.3965C169.17 15.5566 169.018 16.6758 168.713 17.7539C168.42 18.8203 167.998 19.8223 167.447 20.7598C166.896 21.6855 166.24 22.5352 165.479 23.3086C164.717 24.0703 163.867 24.7266 162.93 25.2773C161.992 25.8281 160.984 26.2559 159.906 26.5605C158.84 26.8535 157.727 27 156.566 27H148.973V1.79297H156.566C157.727 1.79297 158.84 1.94531 159.906 2.25C160.984 2.54297 161.992 2.96484 162.93 3.51562C163.867 4.06641 164.717 4.72852 165.479 5.50195C166.24 6.26367 166.896 7.11328 167.447 8.05078C167.998 8.97656 168.42 9.97852 168.713 11.0566C169.018 12.123 169.17 13.2363 169.17 14.3965ZM164.125 14.3965C164.125 13.3535 163.926 12.375 163.527 11.4609C163.141 10.5469 162.602 9.75 161.91 9.07031C161.23 8.37891 160.428 7.83398 159.502 7.43555C158.588 7.03711 157.609 6.83789 156.566 6.83789H154.053V21.9551H156.566C157.609 21.9551 158.588 21.7617 159.502 21.375C160.428 20.9766 161.23 20.4375 161.91 19.7578C162.602 19.0664 163.141 18.2637 163.527 17.3496C163.926 16.4238 164.125 15.4395 164.125 14.3965ZM190.246 27H189.086L187.223 24.416C186.766 24.8262 186.279 25.2129 185.764 25.5762C185.26 25.9277 184.727 26.2383 184.164 26.5078C183.602 26.7656 183.021 26.9707 182.424 27.123C181.838 27.2754 181.24 27.3516 180.631 27.3516C179.307 27.3516 178.059 27.1289 176.887 26.6836C175.727 26.2383 174.707 25.5938 173.828 24.75C172.961 23.8945 172.275 22.8516 171.771 21.6211C171.268 20.3906 171.016 18.9902 171.016 17.4199C171.016 15.9551 171.268 14.6133 171.771 13.3945C172.275 12.1641 172.961 11.1094 173.828 10.2305C174.707 9.35156 175.727 8.67188 176.887 8.19141C178.059 7.69922 179.307 7.45312 180.631 7.45312C181.24 7.45312 181.844 7.5293 182.441 7.68164C183.039 7.83398 183.619 8.04492 184.182 8.31445C184.744 8.58398 185.277 8.90039 185.781 9.26367C186.297 9.62695 186.777 10.0195 187.223 10.4414L189.086 8.20898H190.246V27ZM185.412 17.4199C185.412 16.7637 185.283 16.1309 185.025 15.5215C184.779 14.9004 184.439 14.3555 184.006 13.8867C183.572 13.4062 183.062 13.0254 182.477 12.7441C181.902 12.4512 181.287 12.3047 180.631 12.3047C179.975 12.3047 179.354 12.416 178.768 12.6387C178.193 12.8613 177.689 13.1895 177.256 13.623C176.834 14.0566 176.5 14.5957 176.254 15.2402C176.008 15.873 175.885 16.5996 175.885 17.4199C175.885 18.2402 176.008 18.9727 176.254 19.6172C176.5 20.25 176.834 20.7832 177.256 21.2168C177.689 21.6504 178.193 21.9785 178.768 22.2012C179.354 22.4238 179.975 22.5352 180.631 22.5352C181.287 22.5352 181.902 22.3945 182.477 22.1133C183.062 21.8203 183.572 21.4395 184.006 20.9707C184.439 20.4902 184.779 19.9453 185.025 19.3359C185.283 18.7148 185.412 18.0762 185.412 17.4199ZM203.359 27C202.199 27 201.109 26.7832 200.09 26.3496C199.07 25.9043 198.174 25.3008 197.4 24.5391C196.639 23.7656 196.035 22.8691 195.59 21.8496C195.156 20.8301 194.939 19.7402 194.939 18.5801V12.9902H192.602V8.20898H194.939V0.685547H199.721V8.20898H206.998V12.9902H199.721V18.5801C199.721 19.084 199.814 19.5586 200.002 20.0039C200.189 20.4375 200.447 20.8184 200.775 21.1465C201.104 21.4746 201.49 21.7383 201.936 21.9375C202.381 22.125 202.855 22.2188 203.359 22.2188H206.998V27H203.359ZM227.934 27H226.773L224.91 24.416C224.453 24.8262 223.967 25.2129 223.451 25.5762C222.947 25.9277 222.414 26.2383 221.852 26.5078C221.289 26.7656 220.709 26.9707 220.111 27.123C219.525 27.2754 218.928 27.3516 218.318 27.3516C216.994 27.3516 215.746 27.1289 214.574 26.6836C213.414 26.2383 212.395 25.5938 211.516 24.75C210.648 23.8945 209.963 22.8516 209.459 21.6211C208.955 20.3906 208.703 18.9902 208.703 17.4199C208.703 15.9551 208.955 14.6133 209.459 13.3945C209.963 12.1641 210.648 11.1094 211.516 10.2305C212.395 9.35156 213.414 8.67188 214.574 8.19141C215.746 7.69922 216.994 7.45312 218.318 7.45312C218.928 7.45312 219.531 7.5293 220.129 7.68164C220.727 7.83398 221.307 8.04492 221.869 8.31445C222.432 8.58398 222.965 8.90039 223.469 9.26367C223.984 9.62695 224.465 10.0195 224.91 10.4414L226.773 8.20898H227.934V27ZM223.1 17.4199C223.1 16.7637 222.971 16.1309 222.713 15.5215C222.467 14.9004 222.127 14.3555 221.693 13.8867C221.26 13.4062 220.75 13.0254 220.164 12.7441C219.59 12.4512 218.975 12.3047 218.318 12.3047C217.662 12.3047 217.041 12.416 216.455 12.6387C215.881 12.8613 215.377 13.1895 214.943 13.623C214.521 14.0566 214.188 14.5957 213.941 15.2402C213.695 15.873 213.572 16.5996 213.572 17.4199C213.572 18.2402 213.695 18.9727 213.941 19.6172C214.188 20.25 214.521 20.7832 214.943 21.2168C215.377 21.6504 215.881 21.9785 216.455 22.2012C217.041 22.4238 217.662 22.5352 218.318 22.5352C218.975 22.5352 219.59 22.3945 220.164 22.1133C220.75 21.8203 221.26 21.4395 221.693 20.9707C222.127 20.4902 222.467 19.9453 222.713 19.3359C222.971 18.7148 223.1 18.0762 223.1 17.4199ZM236.406 27H231.607V8.17383H232.768L234.35 10.002C235.123 9.29883 235.996 8.75977 236.969 8.38477C237.953 7.99805 238.979 7.80469 240.045 7.80469C241.193 7.80469 242.277 8.02734 243.297 8.47266C244.316 8.90625 245.207 9.50977 245.969 10.2832C246.73 11.0449 247.328 11.9414 247.762 12.9727C248.207 13.9922 248.43 15.082 248.43 16.2422V27H243.631V16.2422C243.631 15.75 243.537 15.2871 243.35 14.8535C243.162 14.4082 242.904 14.0215 242.576 13.6934C242.248 13.3652 241.867 13.1074 241.434 12.9199C241 12.7324 240.537 12.6387 240.045 12.6387C239.541 12.6387 239.066 12.7324 238.621 12.9199C238.176 13.1074 237.789 13.3652 237.461 13.6934C237.133 14.0215 236.875 14.4082 236.688 14.8535C236.5 15.2871 236.406 15.75 236.406 16.2422V27ZM265.252 17.4199C265.252 16.7637 265.123 16.1309 264.865 15.5215C264.619 14.9004 264.279 14.3555 263.846 13.8867C263.412 13.4062 262.902 13.0254 262.316 12.7441C261.742 12.4512 261.127 12.3047 260.471 12.3047C259.814 12.3047 259.193 12.416 258.607 12.6387C258.033 12.8613 257.529 13.1895 257.096 13.623C256.674 14.0566 256.34 14.5957 256.094 15.2402C255.848 15.873 255.725 16.5996 255.725 17.4199C255.725 18.2051 255.848 18.9141 256.094 19.5469C256.34 20.168 256.674 20.7012 257.096 21.1465C257.529 21.5918 258.033 21.9375 258.607 22.1836C259.193 22.418 259.814 22.5352 260.471 22.5352C261.127 22.5352 261.742 22.3945 262.316 22.1133C262.902 21.8203 263.412 21.4395 263.846 20.9707C264.279 20.4902 264.619 19.9453 264.865 19.3359C265.123 18.7148 265.252 18.0762 265.252 17.4199ZM270.086 24.627C270.086 25.9512 269.834 27.1934 269.33 28.3535C268.826 29.5137 268.135 30.5273 267.256 31.3945C266.389 32.2617 265.369 32.9473 264.197 33.4512C263.037 33.9551 261.795 34.207 260.471 34.207L258.062 34.1719V29.373L260.436 29.4082C261.186 29.4082 261.824 29.3086 262.352 29.1094C262.879 28.9219 263.324 28.6582 263.688 28.3184C264.051 27.9902 264.338 27.6094 264.549 27.1758C264.771 26.7422 264.947 26.2852 265.076 25.8047C264.889 26.1094 264.619 26.3613 264.268 26.5605C263.916 26.748 263.523 26.9004 263.09 27.0176C262.668 27.1465 262.223 27.2344 261.754 27.2812C261.297 27.3281 260.869 27.3516 260.471 27.3516C259.146 27.3516 257.898 27.123 256.727 26.666C255.566 26.209 254.547 25.5586 253.668 24.7148C252.801 23.8594 252.115 22.8164 251.611 21.5859C251.107 20.3555 250.855 18.9668 250.855 17.4199C250.855 16.002 251.107 14.6836 251.611 13.4648C252.115 12.2461 252.801 11.1914 253.668 10.3008C254.547 9.41016 255.566 8.71289 256.727 8.20898C257.898 7.70508 259.146 7.45312 260.471 7.45312C261.08 7.45312 261.684 7.5293 262.281 7.68164C262.879 7.83398 263.459 8.04492 264.021 8.31445C264.584 8.58398 265.117 8.90039 265.621 9.26367C266.137 9.62695 266.617 10.0195 267.062 10.4414L268.926 8.20898H270.086V24.627Z" fill="white"/>
</svg>
