<svg width="246" height="182" viewBox="0 0 246 182" fill="none" xmlns="http://www.w3.org/2000/svg">
<g clip-path="url(#clip0)">
<path d="M177.024 107.969L178.959 106.776C179.143 106.66 179.325 106.536 179.511 106.419C175.361 105.707 171.578 103.6 168.79 100.449C166.002 97.2976 164.375 93.2901 164.18 89.0898C164.037 86.2012 164.584 83.32 165.775 80.6837C166.885 78.217 168.522 76.0233 170.573 74.2571C172.623 72.491 175.037 71.1954 177.643 70.4618L177.547 78.0661L181.731 69.7893C181.748 69.7866 181.766 69.7866 181.783 69.7893C184.208 69.6763 186.631 70.0411 188.914 70.8631C191.197 71.6851 193.296 72.948 195.09 74.5798C196.885 76.2116 198.34 78.1803 199.372 80.3735C200.404 82.5667 200.994 84.9414 201.107 87.3621C201.122 87.7138 201.107 88.0604 201.107 88.3967C202.563 86.7387 203.884 84.9618 204.76 83.0141C206.532 79.0697 206.573 74.6028 206.425 69.1737C206.146 58.4138 205.682 47.5737 205.076 36.7647C200.707 36.2803 196.655 34.2565 193.647 31.057C190.639 27.8574 188.872 23.6917 188.664 19.3083C188.638 18.7419 188.646 18.1858 188.664 17.6323C188.664 17.4952 188.664 17.3555 188.685 17.2184C188.721 16.683 188.77 16.1528 188.853 15.6303C188.853 15.5424 188.884 15.4596 188.9 15.3716C188.976 14.9285 189.066 14.4905 189.172 14.0577C189.213 13.8973 189.252 13.7344 189.296 13.574C189.425 13.1033 189.555 12.6403 189.734 12.1825C189.788 12.0299 189.853 11.8824 189.91 11.7324C190.042 11.3962 190.185 11.0651 190.335 10.7366C190.415 10.5633 190.493 10.3926 190.578 10.2193C190.599 10.1753 190.617 10.1314 190.64 10.0874C192.591 6.24083 195.83 3.1983 199.794 1.48865C203.759 -0.220993 208.198 -0.489646 212.34 0.729392L212.215 10.6254L216.36 2.45201C219.76 4.39505 222.449 7.37253 224.034 10.9496C225.618 14.5266 226.016 18.5158 225.169 22.3345H225.189C225.161 22.4664 225.119 22.5932 225.088 22.7225C225.031 22.9656 224.969 23.2062 224.902 23.4467C224.814 23.7545 224.715 24.0572 224.614 24.3598C224.537 24.5848 224.461 24.815 224.376 25.0374C224.252 25.3633 224.117 25.6815 223.967 25.9996C223.884 26.1859 223.809 26.3747 223.707 26.5583C223.471 27.0342 223.212 27.4998 222.93 27.955C222.834 28.1128 222.726 28.2628 222.625 28.4206C222.428 28.7258 222.228 29.0284 222.013 29.3233C221.881 29.5043 221.739 29.6776 221.599 29.8561C221.397 30.1148 221.189 30.3734 220.974 30.6088C220.822 30.7821 220.666 30.9528 220.505 31.1261C220.28 31.3641 220.047 31.5943 219.806 31.8219C219.648 31.9745 219.487 32.1271 219.322 32.2719C219.05 32.5125 218.765 32.7427 218.477 32.9677C218.332 33.0815 218.192 33.2005 218.042 33.3091C217.605 33.6333 217.153 33.9376 216.687 34.2221C216.599 34.2739 216.506 34.3178 216.428 34.3696C216.039 34.5998 215.651 34.8145 215.234 35.0162C215.06 35.1016 214.879 35.1766 214.7 35.2568C214.366 35.4068 214.029 35.5516 213.684 35.6835C213.485 35.7585 213.28 35.8284 213.075 35.8982C212.736 36.0146 212.392 36.1206 212.039 36.2163C211.832 36.2733 211.627 36.3302 211.417 36.3793C211.039 36.4698 210.653 36.5448 210.265 36.6095C210.239 36.6095 210.215 36.6095 210.19 36.625C210.445 41.1842 210.672 45.7459 210.871 50.3103C211.973 48.0518 213.525 46.0419 215.433 44.4039C217.341 42.7659 219.564 41.5343 221.965 40.7847C224.367 40.0351 226.896 39.7833 229.399 40.0447C231.901 40.3062 234.324 41.0753 236.518 42.305L233.251 51.2414L239.972 44.7984C243.569 48.0904 245.712 52.6724 245.93 57.5396C246.016 59.2473 245.858 60.9586 245.461 62.6221C244.617 66.2218 242.709 69.4852 239.984 71.9888C237.259 74.4925 233.844 76.1208 230.181 76.6625C226.518 77.2043 222.776 76.6344 219.441 75.0269C216.107 73.4194 213.333 70.8485 211.48 67.6477C211.48 68.1106 211.513 68.5762 211.526 69.0392C211.648 73.8294 211.801 79.7887 209.41 85.1118C207.791 88.72 205.182 91.6505 202.604 94.2758C200.928 95.9855 199.19 97.6383 197.407 99.2393C195.655 101.589 193.367 103.488 190.734 104.78C187.806 107.032 184.775 109.14 181.641 111.106L179.736 112.332C177.977 113.421 176.174 114.539 174.405 115.695C174.716 115.664 175.024 115.63 175.34 115.617C179.257 115.434 183.13 116.499 186.401 118.657C189.672 120.816 192.171 123.957 193.537 127.626L181.988 137.013L194.682 134.072C194.678 137.192 193.883 140.261 192.369 142.991C190.856 145.721 188.674 148.023 186.028 149.683C183.381 151.343 180.356 152.306 177.236 152.482C174.116 152.658 171.002 152.042 168.185 150.69C168.47 151.047 168.757 151.402 169.042 151.756C169.61 152.462 170.174 153.163 170.726 153.859C178.239 163.359 180.332 172.381 176.61 179.258L172.086 176.817C175.713 170.123 170.273 161.556 166.69 157.04C166.149 156.357 165.594 155.669 165.035 154.971C160.234 149.022 154.794 142.266 154.931 133.987C155.125 121.52 167.273 114.001 177.024 107.969Z" fill="#F2F2F2"/>
<path d="M118.004 182C183.176 182 236.008 179.568 236.008 176.568C236.008 173.568 183.176 171.137 118.004 171.137C52.8322 171.137 0 173.568 0 176.568C0 179.568 52.8322 182 118.004 182Z" fill="#3F3D56"/>
<path d="M213.337 174.543C214.114 173.118 213.234 171.372 212.228 170.099C211.223 168.827 209.998 167.513 210.024 165.886C210.06 163.558 212.534 162.185 214.513 160.951C215.979 160.034 217.331 158.948 218.542 157.715C219.05 157.241 219.47 156.68 219.783 156.06C220.189 155.149 220.179 154.115 220.153 153.116C220.067 149.795 219.903 146.478 219.661 143.164" stroke="#3F3D56" stroke-width="4" stroke-miterlimit="10"/>
<path d="M223.42 142.988C223.391 142.38 223.21 141.789 222.893 141.27C222.576 140.75 222.134 140.318 221.607 140.013L220.793 141.622L220.816 139.677C220.26 139.51 219.672 139.48 219.101 139.588C218.53 139.696 217.994 139.939 217.537 140.297C217.08 140.654 216.716 141.117 216.475 141.644C216.234 142.172 216.124 142.75 216.153 143.329C216.199 144.289 216.624 145.192 217.336 145.84C217.689 146.16 218.102 146.408 218.55 146.569C218.999 146.73 219.475 146.802 219.951 146.779C220.427 146.757 220.895 146.641 221.326 146.438C221.758 146.236 222.145 145.95 222.466 145.598C222.787 145.246 223.035 144.834 223.196 144.386C223.358 143.938 223.43 143.463 223.407 142.988H223.42Z" fill="#57B793"/>
<path d="M216.935 167.559C216.555 168.298 215.931 168.883 215.17 169.217C214.408 169.551 213.555 169.614 212.753 169.395C211.95 169.175 211.248 168.687 210.763 168.012C210.279 167.337 210.041 166.517 210.09 165.688C210.139 164.859 210.473 164.072 211.034 163.459C211.595 162.846 212.35 162.444 213.173 162.321C213.995 162.198 214.835 162.361 215.552 162.782C216.269 163.204 216.818 163.859 217.109 164.637L214.84 166.481L217.337 165.902C217.337 166.478 217.2 167.047 216.935 167.559Z" fill="#57B793"/>
<path d="M215.14 160.501C214.663 160.524 214.186 160.452 213.737 160.291C213.288 160.129 212.875 159.881 212.522 159.56C212.169 159.238 211.883 158.85 211.681 158.419C211.478 157.987 211.363 157.519 211.342 157.043C211.313 156.475 211.421 155.908 211.656 155.39C211.874 154.905 212.195 154.473 212.598 154.125C213.001 153.778 213.475 153.523 213.987 153.378L213.969 154.875L214.793 153.246C215.757 153.201 216.699 153.54 217.412 154.188C218.125 154.837 218.551 155.742 218.596 156.704C218.641 157.666 218.301 158.607 217.652 159.319C217.002 160.031 216.096 160.456 215.132 160.501H215.14Z" fill="#57B793"/>
<path d="M223.966 154.627C223.005 154.672 222.064 154.334 221.352 153.687C220.64 153.04 220.214 152.137 220.169 151.177C220.123 150.216 220.462 149.277 221.11 148.566C221.758 147.855 222.663 147.43 223.624 147.385C224.304 147.351 224.98 147.511 225.573 147.845L224.93 149.604L226.251 148.337C226.96 148.984 227.383 149.885 227.428 150.843C227.444 151.178 227.413 151.515 227.334 151.841C227.153 152.608 226.726 153.295 226.118 153.798C225.51 154.301 224.755 154.592 223.966 154.627Z" fill="#57B793"/>
<path opacity="0.1" d="M222.93 143.945C222.091 144.038 221.275 144.299 220.433 144.351C219.591 144.402 218.666 144.201 218.132 143.546C217.845 143.195 217.702 142.75 217.459 142.367C217.229 142.009 216.915 141.713 216.544 141.506C216.325 141.963 216.204 142.462 216.191 142.969C216.177 143.477 216.27 143.981 216.464 144.45C216.658 144.92 216.949 145.343 217.317 145.692C217.685 146.042 218.123 146.311 218.602 146.481C219.081 146.65 219.591 146.718 220.097 146.678C220.604 146.639 221.097 146.494 221.544 146.252C221.991 146.01 222.382 145.677 222.692 145.275C223.002 144.873 223.223 144.41 223.342 143.916C223.202 143.921 223.065 143.932 222.93 143.945Z" fill="black"/>
<path opacity="0.1" d="M223.967 154.627C223.34 154.659 222.715 154.527 222.154 154.246C221.593 153.964 221.115 153.542 220.766 153.021C220.418 152.499 220.211 151.897 220.165 151.271C220.12 150.646 220.238 150.02 220.508 149.454C220.797 149.648 221.045 149.897 221.239 150.186C221.498 150.576 221.653 151.026 221.959 151.386C222.524 152.051 223.493 152.268 224.371 152.227C225.249 152.185 226.094 151.94 226.961 151.859C227.081 151.859 227.205 151.839 227.327 151.836C227.147 152.603 226.721 153.29 226.115 153.794C225.509 154.297 224.754 154.59 223.967 154.627Z" fill="black"/>
<path opacity="0.1" d="M215.14 160.501C214.663 160.524 214.186 160.452 213.737 160.291C213.288 160.129 212.875 159.881 212.522 159.559C212.169 159.238 211.883 158.85 211.681 158.419C211.478 157.987 211.363 157.519 211.342 157.043C211.313 156.475 211.421 155.908 211.656 155.39C211.957 155.587 212.221 155.837 212.433 156.127C212.715 156.525 212.892 156.983 213.21 157.351C213.824 158.033 214.855 158.274 215.785 158.251C216.715 158.227 217.552 158.01 218.448 157.943C218.227 158.657 217.791 159.286 217.199 159.743C216.607 160.201 215.888 160.466 215.14 160.501Z" fill="black"/>
<path opacity="0.1" d="M216.936 167.559C216.74 167.994 216.46 168.386 216.113 168.713C215.766 169.04 215.357 169.295 214.911 169.464C214.465 169.633 213.99 169.713 213.513 169.699C213.036 169.685 212.566 169.577 212.131 169.382C211.696 169.186 211.303 168.907 210.976 168.561C210.649 168.214 210.393 167.806 210.224 167.361C210.054 166.915 209.974 166.441 209.988 165.965C210.002 165.488 210.11 165.02 210.306 164.585C210.604 164.783 210.873 165.023 211.104 165.296C211.449 165.718 211.676 166.194 212.078 166.59C212.822 167.316 214.021 167.624 215.088 167.645C215.705 167.653 216.322 167.624 216.936 167.559Z" fill="black"/>
<path d="M207.855 172.901C207.855 172.901 210.723 172.813 211.588 172.197C212.454 171.582 215.993 170.847 216.218 171.835C216.443 172.823 220.531 176.749 217.29 176.765C214.05 176.78 209.762 176.248 208.899 175.73C208.037 175.213 207.855 172.901 207.855 172.901Z" fill="#656380"/>
<path opacity="0.2" d="M217.348 176.421C214.109 176.447 209.819 175.904 208.956 175.386C208.301 174.988 208.037 173.552 207.951 172.89H207.855C207.855 172.89 208.037 175.2 208.892 175.735C209.747 176.271 214.042 176.791 217.283 176.77C218.218 176.77 218.542 176.429 218.524 175.937C218.402 176.229 218.044 176.416 217.348 176.421Z" fill="black"/>
<path d="M50.3647 166.564C48.4839 163.087 50.6238 158.83 53.0693 155.731C55.5149 152.633 58.5097 149.41 58.4449 145.46C58.3517 139.786 52.3206 136.436 47.502 133.428C43.9264 131.195 40.628 128.548 37.6757 125.542C36.4918 124.334 35.3441 123.046 34.655 121.504C33.6602 119.285 33.6861 116.763 33.7509 114.332C33.9581 106.227 34.3588 98.1383 34.953 90.065" stroke="#3F3D56" stroke-width="4" stroke-miterlimit="10"/>
<path d="M25.7899 89.6227C25.8609 88.1421 26.3032 86.703 27.0763 85.4376C27.8495 84.1722 28.9286 83.121 30.2147 82.3804L32.1992 86.299L32.1396 81.5553C33.9424 81.025 35.8674 81.0803 37.6366 81.7135C39.4059 82.3466 40.9278 83.5248 41.9826 85.0778C43.0374 86.6309 43.5706 88.4785 43.5052 90.3538C43.4397 92.2291 42.779 94.0351 41.6184 95.5111C40.4578 96.987 38.8574 98.0565 37.0483 98.5651C35.2392 99.0738 33.315 98.9952 31.5536 98.3408C29.7921 97.6864 28.2846 96.49 27.2486 94.9243C26.2126 93.3587 25.7018 91.5048 25.7899 89.6304V89.6227Z" fill="#57B793"/>
<path d="M41.5981 149.516C42.4893 151.25 43.9291 152.642 45.694 153.475C47.4589 154.308 49.4499 154.536 51.3577 154.123C53.2656 153.71 54.9834 152.679 56.2444 151.192C57.5054 149.704 58.2389 147.842 58.331 145.895C58.3929 144.671 58.1961 143.448 57.7533 142.305C57.1061 140.628 55.9631 139.188 54.4764 138.176C52.9897 137.164 51.2297 136.627 49.4302 136.637C47.6306 136.648 45.8769 137.205 44.402 138.234C42.9272 139.264 41.801 140.717 41.1732 142.4L46.7094 146.896L40.6188 145.481C40.6163 146.885 40.9521 148.269 41.5981 149.516Z" fill="#57B793"/>
<path d="M45.9737 132.336C48.1471 132.436 50.2812 131.733 51.9696 130.363C53.6581 128.993 54.783 127.051 55.1302 124.907C55.4774 122.763 55.0226 120.566 53.8525 118.734C52.6824 116.903 50.8786 115.565 48.7845 114.976L48.8311 118.62L46.8363 114.655H46.813C44.4642 114.546 42.1681 115.372 40.4298 116.953C38.6914 118.534 37.6533 120.739 37.5437 123.084C37.4341 125.429 38.2621 127.722 39.8454 129.457C41.4288 131.193 43.6378 132.23 45.9866 132.339L45.9737 132.336Z" fill="#57B793"/>
<path d="M24.4557 118.041C25.828 118.107 27.1971 117.855 28.4548 117.303C29.7126 116.751 30.8246 115.914 31.7031 114.86C32.5817 113.805 33.2026 112.561 33.517 111.225C33.8314 109.89 33.8306 108.5 33.5147 107.165C33.1989 105.83 32.5765 104.587 31.6968 103.533C30.8171 102.479 29.7041 101.644 28.4457 101.093C27.1873 100.543 25.8179 100.292 24.4457 100.36C23.0735 100.428 21.7359 100.814 20.5386 101.487L22.093 105.773L18.8832 102.677C18.0251 103.456 17.3295 104.397 16.836 105.446C16.3426 106.494 16.0611 107.629 16.0076 108.786C15.9664 109.605 16.0423 110.425 16.2329 111.223C16.6736 113.098 17.715 114.778 19.199 116.009C20.683 117.239 22.5286 117.953 24.4557 118.041Z" fill="#57B793"/>
<path opacity="0.1" d="M26.9816 91.9816C29.0282 92.2066 31.0178 92.8403 33.0696 92.967C35.1214 93.0938 37.3778 92.6049 38.6758 91.0116C39.3752 90.1529 39.725 89.0666 40.3156 88.1303C40.8753 87.2578 41.6425 86.5372 42.5488 86.0326C43.1131 87.1542 43.4321 88.3828 43.4845 89.6369C43.5369 90.891 43.3215 92.1418 42.8527 93.3065C42.3839 94.4711 41.6724 95.5229 40.7653 96.3919C39.8583 97.261 38.7764 97.9276 37.5916 98.3473C36.4069 98.7671 35.1462 98.9304 33.8933 98.8265C32.6405 98.7227 31.4241 98.3539 30.3248 97.7448C29.2256 97.1357 28.2687 96.3001 27.5177 95.2936C26.7666 94.287 26.2386 93.1325 25.9686 91.9066C26.3132 91.9221 26.65 91.9454 26.9816 91.9816Z" fill="black"/>
<path opacity="0.1" d="M24.4558 118.041C25.9833 118.111 27.5031 117.786 28.8677 117.097C30.2322 116.408 31.3952 115.378 32.2437 114.108C33.0923 112.838 33.5975 111.371 33.7105 109.848C33.8234 108.325 33.5402 106.8 32.8883 105.419C32.1845 105.891 31.5792 106.495 31.1059 107.198C30.4738 108.15 30.093 109.249 29.3495 110.123C27.9687 111.743 25.6112 112.273 23.4713 112.177C21.3314 112.081 19.2667 111.471 17.1372 111.277C16.8418 111.251 16.5413 111.23 16.2434 111.223C16.6835 113.096 17.7234 114.775 19.2053 116.006C20.6873 117.236 22.5305 117.95 24.4558 118.041Z" fill="black"/>
<path opacity="0.1" d="M45.9736 132.336C47.4862 132.407 48.9918 132.09 50.3468 131.415C51.7017 130.74 52.8608 129.729 53.7135 128.48C54.5661 127.23 55.0839 125.784 55.2174 124.278C55.3509 122.772 55.0957 121.257 54.4761 119.877C53.7461 120.361 53.1113 120.975 52.603 121.688C51.9139 122.658 51.4839 123.775 50.6782 124.67C49.1834 126.333 46.6704 126.92 44.4036 126.866C42.2094 126.819 40.0954 126.281 37.9141 126.113C38.4541 127.852 39.5175 129.382 40.9596 130.495C42.4017 131.609 44.1525 132.252 45.9736 132.336Z" fill="black"/>
<path opacity="0.1" d="M41.598 149.516C42.4892 151.25 43.9291 152.642 45.694 153.475C47.4588 154.308 49.4499 154.536 51.3577 154.123C53.2656 153.71 54.9834 152.679 56.2444 151.192C57.5054 149.704 58.2389 147.842 58.331 145.895C58.3929 144.671 58.1961 143.448 57.7533 142.305C57.024 142.783 56.3693 143.366 55.8103 144.035C54.9684 145.07 54.4114 146.223 53.4373 147.18C51.6238 148.955 48.699 149.689 46.0954 149.767C44.5926 149.772 43.0909 149.688 41.598 149.516Z" fill="black"/>
<path d="M111.714 171.732L77.5173 178.715L76.7401 178.638L46.6886 175.611V137.59L83.4758 131.382L110.159 134.486L110.167 134.654L110.17 134.737L111.714 171.732Z" fill="#0ABDE3"/>
<path opacity="0.1" d="M111.714 171.732L77.5173 178.715L76.7401 178.638V139.659L110.167 134.654L111.714 171.732Z" fill="black"/>
<path opacity="0.05" d="M110.17 134.737L110.159 134.744L76.7401 139.659L46.6886 137.59L83.4758 131.382L110.159 134.486L110.167 134.654L110.17 134.737Z" fill="black"/>
<path d="M149.278 173.283L115.082 180.267L114.305 180.189L84.2531 177.163V139.141L121.04 132.934L147.724 136.038L147.732 136.206L147.734 136.289L149.278 173.283Z" fill="#3F3D56"/>
<path opacity="0.1" d="M149.278 173.283L115.082 180.267L114.305 180.189V141.211L147.732 136.206L149.278 173.283Z" fill="black"/>
<path opacity="0.05" d="M147.734 136.289L147.724 136.296L114.305 141.211L84.2531 139.141L121.04 132.934L147.724 136.038L147.732 136.206L147.734 136.289Z" fill="black"/>
<path d="M125.703 136.038L91.5068 143.021L90.7296 142.944L60.6781 139.917V101.896L97.4653 95.6881L124.149 98.7919L124.157 98.96L124.159 99.0428L125.703 136.038Z" fill="#3F3D56"/>
<path opacity="0.1" d="M125.703 136.038L91.5068 143.021L90.7296 142.944V103.965L124.157 98.96L125.703 136.038Z" fill="black"/>
<path opacity="0.05" d="M124.159 99.0428L124.149 99.0505L90.7296 103.965L60.6781 101.896L97.4653 95.6881L124.149 98.7919L124.157 98.96L124.159 99.0428Z" fill="black"/>
<path d="M145.133 137.631L127.286 141.278L126.88 141.237L111.196 139.656V119.812L130.395 116.572L144.322 118.193L144.328 118.281V118.323L145.133 137.631Z" fill="#3F3D56"/>
<path opacity="0.1" d="M145.133 137.631L127.286 141.278L126.88 141.237V120.894L144.327 118.281L145.133 137.631Z" fill="black"/>
<path opacity="0.05" d="M144.328 118.323L144.322 118.328L126.88 120.894L111.196 119.812L130.395 116.572L144.322 118.193L144.328 118.281V118.323Z" fill="black"/>
<path d="M97.2063 99.0919L79.3593 102.736L78.9526 102.697L63.2688 101.117V81.2734L82.4681 78.0325L96.3954 79.6542L96.4006 79.7422V79.7836L97.2063 99.0919Z" fill="#3F3D56"/>
<path opacity="0.1" d="M97.2062 99.0919L79.3592 102.736L78.9525 102.698V82.3546L96.4005 79.7422L97.2062 99.0919Z" fill="black"/>
<path opacity="0.05" d="M96.4006 79.7836L96.3954 79.7887L78.9526 82.3546L63.2688 81.2734L82.4681 78.0325L96.3954 79.6542L96.4006 79.7422V79.7836Z" fill="black"/>
<path d="M128.553 98.316L110.706 101.96L110.299 101.922L94.6156 100.341V80.4975L113.815 77.2566L127.742 78.8783L127.747 78.9662V79.0076L128.553 98.316Z" fill="#0ABDE3"/>
<path opacity="0.1" d="M128.553 98.316L110.706 101.96L110.299 101.922V81.5786L127.747 78.9662L128.553 98.316Z" fill="black"/>
<path opacity="0.05" d="M127.747 79.0076L127.742 79.0128L110.299 81.5786L94.6156 80.4975L113.815 77.2566L127.742 78.8783L127.747 78.9662V79.0076Z" fill="black"/>
<path d="M137.879 78.3998L120.032 82.0442L119.626 82.0054L103.942 80.425V60.5813L123.141 57.3404L137.069 58.9622L137.074 59.0501V59.0915L137.879 78.3998Z" fill="#3F3D56"/>
<path opacity="0.1" d="M137.879 78.3998L120.032 82.0442L119.626 82.0054V61.6625L137.074 59.0501L137.879 78.3998Z" fill="black"/>
<path opacity="0.05" d="M137.074 59.0915L137.069 59.0967L119.626 61.6625L103.942 60.5813L123.141 57.3404L137.069 58.9622L137.074 59.0501V59.0915Z" fill="black"/>
<path d="M150.035 37.8329C149.846 39.5142 148.561 40.8695 148.084 42.4887C147.369 44.9329 148.602 47.5582 150.302 49.4722C151.671 50.993 153.329 52.2274 155.18 53.1038C157.031 53.9803 159.038 54.4813 161.084 54.578C161.685 54.6297 162.29 54.5638 162.866 54.384C163.379 54.1757 163.841 53.8599 164.221 53.458C165.496 52.1777 166.182 50.406 166.454 48.6187C166.726 46.8314 166.623 45.0131 166.516 43.2103C166.516 42.8372 166.448 42.4673 166.314 42.1188C166.141 41.7873 165.902 41.4944 165.612 41.2575C164.693 40.4144 163.681 39.6793 162.594 39.0667C162.128 38.808 161.628 38.5494 161.33 38.1019C161.125 37.7456 160.993 37.3529 160.939 36.9457L160.605 35.249C160.545 34.7598 160.378 34.2898 160.115 33.873C159.527 33.0815 158.4 32.9729 157.413 32.9341L153.786 32.7918C152.659 32.7478 151.177 32.4245 150.076 32.647C149.04 32.8513 149.39 33.798 149.576 34.6567C149.846 35.6953 150 36.7605 150.035 37.8329Z" fill="#FFC0C6"/>
<path opacity="0.1" d="M150.035 37.8329C149.846 39.5142 148.561 40.8695 148.084 42.4887C147.369 44.9329 148.602 47.5582 150.302 49.4722C151.671 50.993 153.329 52.2274 155.18 53.1038C157.031 53.9803 159.038 54.4813 161.084 54.578C161.685 54.6297 162.29 54.5638 162.866 54.384C163.379 54.1757 163.841 53.8599 164.221 53.458C165.496 52.1777 166.182 50.406 166.454 48.6187C166.726 46.8314 166.623 45.0131 166.516 43.2103C166.516 42.8372 166.448 42.4673 166.314 42.1188C166.141 41.7873 165.902 41.4944 165.612 41.2575C164.693 40.4144 163.681 39.6793 162.594 39.0667C162.128 38.808 161.628 38.5494 161.33 38.1019C161.125 37.7456 160.993 37.3529 160.939 36.9457L160.605 35.249C160.545 34.7598 160.378 34.2898 160.115 33.873C159.527 33.0815 158.4 32.9729 157.413 32.9341L153.786 32.7918C152.659 32.7478 151.177 32.4245 150.076 32.647C149.04 32.8513 149.39 33.798 149.576 34.6567C149.846 35.6953 150 36.7605 150.035 37.8329Z" fill="black"/>
<path d="M173.068 113.556L171.529 130.399C171.128 134.817 170.718 139.253 169.931 143.614C169.672 145.116 169.34 146.611 168.962 148.093C167.91 152.209 166.384 156.231 165.892 160.449C165.877 160.571 165.864 160.708 165.851 160.819C165.75 161.75 165.662 162.692 165.333 163.561C165.073 164.205 164.708 164.792 164.441 165.428C163.923 166.701 163.84 168.108 163.776 169.486C161.908 168.434 159.863 167.733 157.742 167.417C156.706 167.265 155.579 167.159 154.892 166.383C154.115 165.539 154.206 164.249 154.335 163.116C154.743 159.598 155.149 156.082 155.553 152.568C155.688 151.056 155.947 149.558 156.33 148.088C156.47 147.599 156.638 147.118 156.809 146.637C157.045 145.975 157.283 145.313 157.462 144.633C157.71 143.54 157.881 142.431 157.975 141.314C158.392 137.776 158.895 134.245 159.335 130.709L159.358 130.523C160.019 125.164 160.522 119.779 160.377 114.381C160.356 113.582 160.322 112.782 160.27 111.981C160.198 110.819 160.092 110.204 161.048 109.477C162.112 108.675 163.514 108.114 164.731 107.589C165.387 107.304 172.604 104.743 172.762 105.307C173.098 106.505 173.272 107.742 173.281 108.985C173.295 110.512 173.224 112.037 173.068 113.556Z" fill="#605D82"/>
<path opacity="0.1" d="M169.931 143.614C169.672 145.116 169.34 146.611 168.962 148.093C167.91 152.209 166.384 156.231 165.892 160.449C165.876 160.571 165.864 160.708 165.851 160.819C162.633 156.231 159.923 151.296 156.783 146.658C157.019 145.996 157.257 145.334 157.436 144.653C157.694 143.554 157.874 142.438 157.975 141.314C158.392 137.776 158.895 134.245 159.335 130.709L159.358 130.523C159.54 131.274 159.801 132.003 160.136 132.698C162.244 136.977 167.255 139.139 169.705 143.233C169.787 143.361 169.862 143.488 169.931 143.614Z" fill="black"/>
<path d="M143.822 106C143.929 109.43 144.478 112.831 145.027 116.22L146.159 123.203C146.778 127.031 147.426 130.934 149.239 134.362C150.597 136.927 152.55 139.116 154.32 141.415C158.667 147.069 161.934 153.476 166.055 159.296C167.255 160.987 168.967 162.818 171.011 162.464C172.353 162.234 173.327 161.117 174.379 160.258C175.623 159.244 177.12 158.502 178.099 157.229C179.078 155.956 179.27 153.846 177.944 152.941C177.49 152.633 176.939 152.516 176.426 152.32C174.371 151.544 173.04 149.537 172.195 147.509C171.351 145.481 170.835 143.306 169.708 141.42C167.257 137.326 162.244 135.163 160.136 130.883C158.954 128.488 158.84 125.71 158.752 123.053L158.522 116.248C158.496 115.503 158.478 114.73 158.781 114.05C159.586 112.239 162.022 112.068 163.996 111.838C166.234 111.577 168.403 110.894 170.387 109.826C171.524 109.213 172.633 108.432 173.237 107.294C173.791 106.259 173.866 105.041 173.931 103.867L174.615 91.5315C174.674 90.4711 174.726 89.3718 174.356 88.3786C173.415 85.88 170.255 85.0627 167.584 85.1816C162.615 85.4041 158.029 87.538 153.335 88.9812C152.172 89.3382 151.004 89.6589 149.804 89.8994C148.768 90.1089 147.473 90.0236 146.478 90.3598C144.695 90.9599 144.739 94.8552 144.488 96.4692C143.97 99.6187 143.747 102.81 143.822 106Z" fill="#605D82"/>
<path d="M170.338 162.987C170.775 163.429 170.918 164.075 171.032 164.686C171.665 168.074 171.995 171.511 172.016 174.957C171.988 175.278 172.052 175.601 172.2 175.888C172.324 176.058 172.492 176.192 172.685 176.276C173.952 176.879 175.42 176.038 176.477 175.115C178.433 173.405 180.089 171.108 180.2 168.514C180.229 167.847 180.154 167.172 180.27 166.512C180.441 165.534 181.014 164.683 181.516 163.83C182.376 162.375 183.071 160.829 183.589 159.221C183.78 158.615 183.91 157.855 183.433 157.433C183.266 157.301 183.075 157.202 182.871 157.141L177.146 155.02C176.648 154.836 175.415 158 175.221 158.346C174.742 159.192 174.265 159.671 173.304 159.867C172.343 160.064 171.156 159.779 170.239 160.268C168.685 161.093 169.459 162.105 170.338 162.987Z" fill="#535070"/>
<path d="M161.509 164.939C161.403 164.728 161.254 164.541 161.073 164.388C160.809 164.22 160.508 164.118 160.195 164.091C159.107 163.905 157.817 163.783 157.063 164.593C156.358 165.351 156.48 166.584 155.892 167.438C155.706 167.697 155.452 167.929 155.291 168.214C155.091 168.649 155.002 169.127 155.032 169.605C155.001 170.922 154.97 172.244 155.063 173.558C155.138 174.659 155.322 175.816 156.014 176.68C157.123 178.066 159.123 178.265 160.895 178.353L162.332 178.428C162.728 178.474 163.128 178.437 163.509 178.319C163.744 178.211 163.956 178.057 164.13 177.865C164.305 177.674 164.439 177.449 164.524 177.205C165.273 175.348 164.089 173.348 163.358 171.486C162.516 169.342 162.667 166.965 161.509 164.939Z" fill="#535070"/>
<path d="M149.62 28.3534C149.602 28.1651 149.629 27.9752 149.7 27.7998C149.91 27.43 150.459 27.5412 150.874 27.6343C152.54 28.0533 154.296 27.6731 156.014 27.7714C157.731 27.8697 159.664 28.7258 160.009 30.407C161.255 29.5266 162.329 28.4255 163.177 27.1584C163.654 26.4471 164.068 25.6323 164.003 24.7788C163.91 23.5476 162.876 22.6268 161.931 21.8457L159.081 19.5178C158.706 19.174 158.272 18.8991 157.801 18.7057C157.143 18.4806 156.423 18.5893 155.729 18.5893C153.656 18.5893 151.434 17.6452 149.586 18.5893C148.809 18.985 148.232 19.6653 147.672 20.3274L145.125 23.3381C144.933 23.53 144.792 23.7676 144.716 24.0287C144.643 24.396 144.833 24.7581 144.9 25.128C145.019 25.8005 144.729 26.5195 144.952 27.1661C145.322 28.237 146.628 28.3896 147.426 29.0052C147.721 29.2328 148.187 30.0113 148.542 30.001C149.167 29.988 149.602 28.85 149.62 28.3534Z" fill="#3F3D56"/>
<path d="M153.941 37.2329C158.448 37.2329 162.102 33.5851 162.102 29.0853C162.102 24.5856 158.448 20.9378 153.941 20.9378C149.434 20.9378 145.781 24.5856 145.781 29.0853C145.781 33.5851 149.434 37.2329 153.941 37.2329Z" fill="#FFC0C6"/>
<path d="M155.853 46.9142C155.577 46.1245 155.056 45.4429 154.367 44.9678C153.677 44.4927 152.854 44.2486 152.017 44.2708C151.776 44.3165 151.528 44.2848 151.307 44.1802C151.181 44.0847 151.081 43.9605 151.014 43.8181C150.519 42.9264 150.121 41.9848 149.825 41.0092C149.695 40.5772 149.517 40.0677 149.079 39.9565C148.726 39.8659 148.366 40.0936 148.131 40.3703C147.922 40.6673 147.695 40.9515 147.452 41.2213C146.416 42.1369 144.602 41.3015 143.517 42.1421C143.338 42.2792 143.19 42.455 142.999 42.5818C142.812 42.6953 142.611 42.7823 142.4 42.8404C140.293 43.5248 138.227 44.3306 136.214 45.2536C136.939 49.6093 137.68 54.0478 139.379 58.1216C140.188 60.0614 141.102 61.9625 141.75 63.9619C143.185 68.3926 143.247 73.1337 143.265 77.792C143.265 80.9786 143.265 84.2324 142.229 87.2483C141.996 87.9311 141.711 88.6088 141.646 89.3175C141.581 90.0262 141.794 90.828 142.377 91.2522C142.714 91.4744 143.101 91.6103 143.504 91.6479C145.294 91.9066 147.097 91.4358 148.859 91.0272C153.581 89.9357 158.4 89.3097 163.206 88.6993L171.262 87.6647C171.84 87.6243 172.406 87.4779 172.931 87.2328C174.405 86.4283 174.545 84.2143 173.628 82.8072C173.19 82.1321 172.571 81.5786 172.2 80.8648C171.83 80.1509 171.801 79.1473 172.436 78.6533C173.731 77.6445 173.343 75.7745 173.405 74.1398C173.578 69.5669 173.554 64.9974 173.335 60.4313C173.269 59.4844 173.253 58.5347 173.288 57.5861C173.379 55.9773 173.778 54.4021 174.177 52.8373L176.625 43.2155C175.985 42.2067 174.76 41.5653 173.602 41.2756C172.444 40.9859 171.234 40.9005 170.092 40.5462C167.76 39.822 165.667 37.9855 163.224 38.1563C163.038 38.1595 162.856 38.2037 162.69 38.2856C162.141 38.5985 162.226 39.39 162.193 40.0211C162.115 41.4204 161.084 42.587 159.949 43.4069C158.814 44.2268 157.514 44.8217 156.47 45.7554C156.289 45.8919 156.139 46.0664 156.033 46.2665C155.926 46.4667 155.865 46.6878 155.853 46.9142Z" fill="#3F3D56"/>
<path d="M123.519 56.042C122.979 56.3928 122.404 56.6883 121.804 56.924C121.234 57.149 120.626 57.3275 120.159 57.7206C119.928 57.9206 119.735 58.1596 119.587 58.4267C119.311 58.9158 119.171 59.4699 119.183 60.0312C119.194 60.5925 119.356 61.1405 119.652 61.6179C119.948 62.0953 120.367 62.4847 120.865 62.7455C121.363 63.0063 121.922 63.1289 122.483 63.1006C123.232 63.0618 123.939 62.7592 124.626 62.4617L130.382 59.9605C131.356 59.5389 132.408 59.0475 132.869 58.0905C132.922 58.0009 132.942 57.8958 132.926 57.793C132.881 57.6803 132.797 57.5881 132.688 57.5344C131.391 56.6918 130.256 55.6229 129.338 54.3789C129.102 54.0581 128.82 53.3029 128.478 53.1089C127.26 52.4338 124.496 55.4109 123.519 56.042Z" fill="#FFC0C6"/>
<path d="M185.052 54.0116L187.174 56.4326C187.63 56.9499 188.086 57.4672 188.501 58.0258C189.521 59.4284 190.339 60.9668 190.931 62.5962C191.392 63.8041 191.775 65.0922 191.615 66.3751C191.507 67.0328 191.329 67.6771 191.084 68.2969C190.695 69.4884 190.212 70.6473 189.641 71.7628C189.163 72.6092 188.624 73.4193 188.027 74.1864C186.383 76.3605 184.585 78.4134 182.646 80.3293C181.92 81.0458 181.61 82.2071 181.301 83.1745C180.718 84.9618 179.332 86.3559 177.993 87.675C177.562 88.1297 177.086 88.5388 176.571 88.8959C175.8 89.3926 174.898 89.6484 173.98 89.6304C173.58 89.6327 173.183 89.5508 172.817 89.3899C171.9 88.9553 171.433 87.8975 171.338 86.8887C171.253 85.9721 171.406 85.0492 171.783 84.2091C173.001 81.5165 176.128 80.35 178.338 78.3843C179.633 77.2333 180.625 75.7848 181.604 74.3545C182.268 73.4604 182.822 72.4905 183.255 71.4654C183.747 70.1488 183.555 68.5917 183.988 67.2571C184.169 66.6907 184.506 66.1811 184.69 65.6198C184.874 65.0586 184.936 64.3938 184.591 63.9102C184.333 63.601 184.003 63.3594 183.63 63.2066C182.218 62.4927 180.638 61.572 180.369 60.0123C180.261 59.1486 180.487 58.2763 181.001 57.5732C181.512 56.8791 182.11 56.2533 182.78 55.7109C183.394 55.1574 184.433 54.5444 185.052 54.0116Z" fill="#FFC0C6"/>
<path d="M122.157 59.42C121.784 58.6647 121.315 57.8939 120.558 57.5189C120.19 57.3603 119.794 57.2785 119.393 57.2785C118.992 57.2785 118.595 57.3603 118.227 57.5189C117.494 57.8353 116.807 58.2495 116.185 58.7501L114.356 60.0976C113.942 60.3693 113.575 60.7075 113.271 61.0986C112.981 61.5731 112.789 62.1008 112.706 62.6505C112.447 63.9102 112.237 65.206 112.419 66.4811C112.709 68.5503 113.952 70.3402 115.32 71.9128C116.175 72.8905 117.232 73.8786 118.533 73.9225C119.095 73.9406 119.719 73.7182 119.952 73.2087C120.033 73.0062 120.077 72.7905 120.079 72.5724C120.219 70.2756 119.395 68.033 118.437 65.9406C118.178 65.3715 117.898 64.7818 117.919 64.1585C117.911 64.0526 117.938 63.9471 117.996 63.8584C118.078 63.7724 118.189 63.7183 118.307 63.7058C119.621 63.4472 121.885 64.4663 122.804 63.0101C123.4 62.0479 122.582 60.2761 122.157 59.42Z" fill="#FFC0C6"/>
<path d="M149.19 25.7901C149.174 25.6017 149.202 25.4121 149.273 25.2366C149.483 24.8642 150.032 24.978 150.447 25.0711C152.112 25.4901 153.869 25.1099 155.586 25.2082C157.304 25.3064 159.234 26.1626 159.581 27.8438C160.826 26.9619 161.9 25.8611 162.75 24.5952C163.226 23.8813 163.641 23.0665 163.576 22.213C163.483 20.9818 162.446 20.061 161.503 19.2825L158.654 16.9546C158.279 16.6108 157.847 16.3359 157.377 16.1424C156.716 15.9174 155.998 16.026 155.304 16.026C153.232 16.026 151.009 15.082 149.162 16.026C148.384 16.4218 147.807 17.102 147.247 17.7642L144.698 20.7749C144.506 20.9672 144.366 21.2048 144.291 21.4655C144.219 21.8328 144.408 22.1949 144.475 22.5647C144.594 23.2372 144.304 23.9563 144.527 24.6003C144.897 25.6737 146.203 25.8263 147.001 26.4419C147.296 26.6695 147.763 27.4481 148.118 27.4377C148.732 27.4248 149.167 26.2867 149.19 25.7901Z" fill="#3F3D56"/>
<path d="M131.859 48.1169C131.53 48.3301 131.241 48.5988 131.004 48.911C130.706 49.3636 130.644 49.9456 130.387 50.4111C129.838 51.4302 128.551 51.7949 127.75 52.6304C127.62 52.7446 127.53 52.8966 127.491 53.0649C127.486 53.2924 127.562 53.5142 127.706 53.6908L131.576 59.764C132.872 59.8778 134.1 59.0708 135.39 59.1794C135.869 59.2182 136.364 59.3838 136.825 59.2415C137.155 59.0949 137.464 58.9062 137.745 58.6802C138.522 58.194 139.537 58.1371 140.182 57.4982C140.828 56.8593 140.882 55.9204 140.874 55.0488C140.886 54.2922 140.808 53.537 140.644 52.7985C140.074 50.4706 138.289 48.6756 137.17 46.6116C136.623 45.6054 136.328 45.0183 135.175 45.7089C134.022 46.3995 132.949 47.3203 131.859 48.1169Z" fill="#3F3D56"/>
<path d="M178.856 45.0467C179.583 45.5183 180.239 46.0914 180.804 46.7486C181.392 47.5065 181.726 48.4376 182.293 49.2136C182.861 49.9895 183.589 50.5482 184.21 51.2414C185.156 52.2915 185.796 53.5693 186.423 54.8393C184.888 56.8329 183.216 58.7171 181.418 60.4778C181.217 60.7133 180.953 60.8858 180.656 60.9745C180.455 60.996 180.252 60.9674 180.065 60.8911C179.877 60.8148 179.712 60.6932 179.584 60.5373C179.304 60.2477 179.107 59.8855 178.84 59.5829C178.211 58.9356 177.373 58.5315 176.475 58.4423C175.584 58.3556 174.687 58.3426 173.793 58.4035C173.597 58.4267 173.399 58.3935 173.221 58.3078C173.089 58.217 172.982 58.0942 172.91 57.9508C171.874 56.1713 172.198 53.9366 172.568 51.9036L173.415 47.2478C173.539 46.3589 173.777 45.4896 174.122 44.6613C174.444 43.9759 175.159 42.812 176.045 43.0189C176.931 43.2258 178.107 44.5087 178.856 45.0467Z" fill="#3F3D56"/>
<path d="M104.978 79.1757L87.1313 82.8201L86.7246 82.7813L71.0408 81.201V61.3573L90.2401 58.1164L104.167 59.7381L104.173 59.826V59.8674L104.978 79.1757Z" fill="#0ABDE3"/>
<path opacity="0.1" d="M104.978 79.1758L87.1312 82.8202L86.7245 82.7814V62.4384L104.172 59.826L104.978 79.1758Z" fill="black"/>
<path opacity="0.05" d="M104.173 59.8674L104.167 59.8726L86.7245 62.4384L71.0408 61.3573L90.24 58.1164L104.167 59.7381L104.173 59.826V59.8674Z" fill="black"/>
<path d="M114.305 59.5183L96.4576 63.1652L96.0508 63.1239L80.3671 61.5435V41.6998L99.5663 38.4589L113.494 40.0806L113.499 40.1685V40.2099L114.305 59.5183Z" fill="#3F3D56"/>
<path opacity="0.1" d="M114.304 59.5183L96.4575 63.1652L96.0508 63.1239V42.7809L113.499 40.1685L114.304 59.5183Z" fill="black"/>
<path opacity="0.05" d="M113.499 40.2099L113.494 40.2151L96.0508 42.7809L80.3671 41.6998L99.5663 38.4589L113.494 40.0806L113.499 40.1685V40.2099Z" fill="black"/>
</g>
<defs>
<clipPath id="clip0">
<rect width="246" height="182" fill="white"/>
</clipPath>
</defs>
</svg>
